<svg xmlns="http://www.w3.org/2000/svg" width="672" height="564" fill="none" viewBox="0 0 672 564"><path fill="#fff" stroke="#00A35C" stroke-width="1.24" d="M525.04 95.73H102.3a22.57 22.57 0 0 0-22.57 22.57v296.14A22.57 22.57 0 0 0 102.3 437h422.73a22.57 22.57 0 0 0 22.57-22.57V118.3a22.57 22.57 0 0 0-22.57-22.57Z"/><path stroke="#00A35C" stroke-width="1.24" d="M186.2 182h18.86m-19.19 93.87h19.56m90.41-74.77h16.68m.06 123.11h16.68m89.54-87.01h25.08M418.8 352.48h25.08M252.07 239.3v25.28m-110.25 37.9v40.88"/><path fill="#fff" stroke="#00A35C" stroke-width="1.24" d="M294.69 138.06h-85.97a3.04 3.04 0 0 0-3.04 3.04v97.43a3.04 3.04 0 0 0 3.04 3.04h85.97a3.04 3.04 0 0 0 3.04-3.04V141.1a3.04 3.04 0 0 0-3.04-3.04Z"/><path stroke="#00A35C" stroke-width="1.24" d="M205.62 157h92.27"/><path fill="#00A35C" d="M214.72 151.9q-.62 0-1.09-.32a2 2 0 0 1-.74-.94 4 4 0 0 1-.26-1.51q0-.87.26-1.47.27-.63.74-.94a2 2 0 0 1 1.09-.31q.6 0 1.08.31.47.31.73.94.27.6.27 1.47 0 .9-.27 1.5-.25.63-.73.95-.47.32-1.08.32m0-.82q.33 0 .59-.22.25-.24.39-.67.13-.43.13-1.06 0-.6-.13-1.03-.14-.43-.4-.65a1 1 0 0 0-.58-.22 1 1 0 0 0-.6.22q-.25.22-.38.65-.14.42-.14 1.03 0 .63.14 1.06.14.45.38.67.25.22.6.22m3.48.72v-3.98h.77l.08.9h.02q.3-.49.74-.73a2 2 0 0 1 1.38-.22q.17.04.35.12l-.2.79a2 2 0 0 0-.72-.13q-.4 0-.8.24-.38.24-.68.82v2.2zm5.94.1q-.76 0-1.24-.55a2.3 2.3 0 0 1-.47-1.53q0-.64.25-1.12.25-.47.66-.72a1.6 1.6 0 0 1 1.45-.13q.27.12.5.35h.02l-.05-.67v-1.45h.94v5.72h-.77l-.07-.46h-.03a2 2 0 0 1-.54.4q-.3.16-.66.16m.22-.77q.24 0 .47-.11t.43-.37v-1.79a1.2 1.2 0 0 0-.85-.36 1 1 0 0 0-.51.15q-.22.15-.37.45-.13.3-.13.71 0 .64.25.98t.71.34m5.18.77q-.61 0-1.1-.24-.5-.25-.8-.72-.28-.46-.28-1.13a2 2 0 0 1 1.05-1.83 2 2 0 0 1 1-.25q.6 0 1 .24.42.25.63.67a2 2 0 0 1 .2 1.24q0 .12-.03.2h-3.18v-.66h2.59l-.18.21q0-.6-.27-.88a1 1 0 0 0-.73-.3q-.33 0-.6.15t-.41.47q-.16.3-.16.74 0 .46.17.76t.49.46.73.15q.3 0 .58-.09t.54-.24l.31.58q-.3.2-.71.34-.4.13-.84.13m3.24-.1v-3.98h.77l.08.9h.02q.3-.49.74-.73a2 2 0 0 1 1.38-.22q.17.04.34.12l-.19.79a2 2 0 0 0-.72-.13q-.4 0-.8.24-.38.24-.68.82v2.2zm6.26.1q-.56 0-1.07-.18a4 4 0 0 1-.89-.44l.4-.59q.37.23.78.38a3 3 0 0 0 .9.13q.41 0 .6-.14.2-.15.2-.34a.3.3 0 0 0-.04-.18.4.4 0 0 0-.15-.15 1 1 0 0 0-.34-.13l-.56-.14a3 3 0 0 1-1.17-.46.9.9 0 0 1-.37-.74q0-.53.45-.86.46-.33 1.3-.33.49 0 .92.16.45.16.74.36l-.43.58q-.29-.2-.62-.3-.34-.1-.7-.1-.25 0-.42.06-.15.06-.24.16a.4.4 0 0 0-.07.22q0 .21.24.32.24.1.8.22.63.14.98.32.36.17.48.4a1 1 0 0 1 .14.54 1 1 0 0 1-.22.62q-.21.28-.62.45t-1.02.16"/><path fill="#E8EDEB" d="M230.8 165h-16.02a2.42 2.42 0 0 0 0 4.83h16.02a2.42 2.42 0 1 0 0-4.83m57 0h-24.14a2.42 2.42 0 0 0 0 4.83h24.14a2.41 2.41 0 1 0 0-4.83m0 7.57h-9.53a2.42 2.42 0 0 0 0 4.83h9.53a2.42 2.42 0 0 0 0-4.83m0 7.58h-3.08a2.41 2.41 0 1 0 0 4.82h3.08a2.42 2.42 0 1 0 0-4.82m0 7.57h-17.34a2.41 2.41 0 1 0 0 4.83h17.35a2.41 2.41 0 1 0 0-4.83m-.01 7.58h-17.34a2.41 2.41 0 1 0 0 4.82h17.35a2.41 2.41 0 1 0 0-4.83m-.01 7.58h-17.34a2.42 2.42 0 0 0 0 4.83h17.35a2.42 2.42 0 0 0 0-4.83m-.01 7.57h-17.34a2.42 2.42 0 0 0 0 4.83h17.35a2.42 2.42 0 0 0 0-4.83m-.01 7.58h-17.34a2.41 2.41 0 1 0 0 4.83h17.35a2.41 2.41 0 1 0 0-4.83m-.01 7.57h-17.34a2.41 2.41 0 1 0 0 4.83h17.35a2.41 2.41 0 1 0 0-4.83m-48.69-53.02h-24.34a2.42 2.42 0 0 0 0 4.83h24.34a2.42 2.42 0 0 0 0-4.83m0 7.58h-24.34a2.42 2.42 0 0 0 0 4.82h24.34a2.41 2.41 0 1 0 0-4.82m0 7.57h-24.34a2.42 2.42 0 0 0 0 4.83h24.34a2.41 2.41 0 1 0 0-4.83m4.45 7.58h-28.8a2.42 2.42 0 0 0 0 4.82h28.8a2.41 2.41 0 1 0 0-4.83m-2.94 7.58h-25.85a2.42 2.42 0 0 0 0 4.83h25.85a2.42 2.42 0 0 0 0-4.83m-9.83 7.57h-16.02a2.42 2.42 0 0 0 0 4.83h16.02a2.42 2.42 0 0 0 0-4.83m0 7.58h-16.02a2.42 2.42 0 0 0 0 4.83h16.02a2.42 2.42 0 1 0 0-4.83m2.37 7.57h-18.4a2.42 2.42 0 0 0 0 4.83h18.4a2.42 2.42 0 0 0 0-4.83"/><path fill="#fff" stroke="#00A35C" stroke-width="1.24" d="M415.6 142.4h-85.97a3.04 3.04 0 0 0-3.04 3.04V387.2a3.04 3.04 0 0 0 3.05 3.04h85.96a3.04 3.04 0 0 0 3.04-3.04V145.44a3.04 3.04 0 0 0-3.04-3.04Z"/><path stroke="#00A35C" stroke-width="1.24" d="M326.54 161.34h92.27"/><path fill="#00A35C" d="M335.53 155.61q-.61 0-1.09-.32a2 2 0 0 1-.74-.94 4 4 0 0 1-.25-1.5q0-.88.25-1.48.27-.62.74-.94a2 2 0 0 1 1.09-.31q.6 0 1.08.31.48.32.73.94.27.6.27 1.47 0 .9-.27 1.5-.25.63-.73.95-.46.32-1.08.32m0-.82q.34 0 .59-.22.25-.23.39-.67.14-.43.14-1.06 0-.6-.14-1.03-.14-.42-.39-.65a1 1 0 0 0-.6-.22 1 1 0 0 0-.58.22q-.25.23-.4.65-.12.42-.13 1.03 0 .63.14 1.06.13.45.39.67.24.22.59.22m3.48.72v-3.97h.77l.08.9h.02q.3-.49.74-.74.45-.26.96-.26.24 0 .42.04t.35.12l-.2.79a2 2 0 0 0-.72-.12q-.4 0-.8.23-.38.24-.68.82v2.2zm5.94.1q-.76 0-1.24-.55a2.3 2.3 0 0 1-.46-1.53q0-.64.25-1.12.24-.47.65-.72a1.6 1.6 0 0 1 1.45-.13q.27.12.5.35h.02l-.05-.67v-1.45h.94v5.72h-.77l-.07-.46h-.02a2 2 0 0 1-.55.4q-.31.15-.65.16m.22-.77q.25 0 .47-.11.24-.12.43-.37v-1.79a1.2 1.2 0 0 0-.85-.37 1 1 0 0 0-.5.16q-.24.15-.37.45-.14.3-.14.71 0 .64.25.98.26.34.71.34m5.18.77q-.6 0-1.1-.24-.5-.25-.79-.71-.3-.48-.3-1.14t.3-1.1a2.1 2.1 0 0 1 1.77-.97q.59-.01 1 .23.4.24.62.67a2 2 0 0 1 .2 1.24l-.02.2h-3.19v-.66h2.59l-.18.21q0-.6-.27-.88a1 1 0 0 0-.73-.3q-.33 0-.6.15-.25.15-.41.47-.16.3-.16.74 0 .46.18.76t.48.46.73.15q.31 0 .58-.09t.54-.24l.31.58q-.3.2-.7.34-.4.13-.85.13m3.24-.1v-3.97h.77l.08.9h.02q.3-.49.74-.74.45-.26.96-.26.24 0 .42.04t.35.12l-.2.79a2 2 0 0 0-.72-.12q-.4 0-.8.23-.38.24-.68.82v2.2zm6.26.1q-.56 0-1.07-.18a4 4 0 0 1-.88-.43l.4-.6q.36.24.77.38.42.13.9.13.42 0 .6-.14.21-.15.21-.34a.4.4 0 0 0-.2-.32q-.12-.08-.33-.14l-.57-.14a3 3 0 0 1-1.17-.46.9.9 0 0 1-.37-.74q0-.53.45-.86.46-.33 1.3-.33.5 0 .92.16.44.15.74.37l-.43.57q-.29-.2-.62-.3-.34-.1-.7-.1-.26 0-.42.06t-.24.16a.4.4 0 0 0-.07.22q0 .21.24.32.25.1.8.22.64.15.99.32t.47.4a1 1 0 0 1 .14.54 1 1 0 0 1-.22.62q-.2.28-.62.45-.41.15-1.02.16"/><path fill="#E8EDEB" d="M341.93 169.34h-6.23a2.42 2.42 0 0 0 0 4.83h6.23a2.41 2.41 0 1 0 0-4.83m66.79 0h-17.34a2.41 2.41 0 1 0 0 4.83h17.34a2.42 2.42 0 1 0 0-4.83m0 7.57H396.3a2.41 2.41 0 1 0 0 4.83h12.43a2.42 2.42 0 0 0 0-4.83m-.01 7.57H397.7a2.42 2.42 0 0 0 0 4.84h11.01a2.42 2.42 0 0 0 0-4.84m.01 7.58h-13.67a2.41 2.41 0 1 0 0 4.83h13.67a2.41 2.41 0 1 0 0-4.83m0 7.57h-5.17a2.41 2.41 0 1 0 0 4.83h5.17a2.42 2.42 0 0 0 0-4.83m0 7.57h-5.17a2.41 2.41 0 1 0 0 4.83h5.17a2.42 2.42 0 0 0 0-4.83m0 7.58h-5.17a2.42 2.42 0 0 0 0 4.83h5.17a2.42 2.42 0 0 0 0-4.83m0 7.58h-13.67a2.42 2.42 0 0 0 0 4.83h13.67a2.41 2.41 0 1 0 0-4.84m0 7.58h-13.67a2.41 2.41 0 1 0 0 4.83h13.67a2.41 2.41 0 1 0 0-4.83m0 7.57h-13.67a2.41 2.41 0 1 0 0 4.83h13.67a2.41 2.41 0 1 0 0-4.83m0 7.58H397.7a2.41 2.41 0 1 0 0 4.83h11.02a2.42 2.42 0 0 0 0-4.83m0 7.57H397.7a2.42 2.42 0 0 0 0 4.83h11.02a2.42 2.42 0 0 0 0-4.83m0 7.58H397.7a2.41 2.41 0 1 0 0 4.83h11.02a2.41 2.41 0 1 0 0-4.83m0 7.57H397.7a2.41 2.41 0 1 0 0 4.83h11.02a2.41 2.41 0 1 0 0-4.83m0 7.77H397.7a2.42 2.42 0 0 0 0 4.83h11.02a2.42 2.42 0 0 0 0-4.83m0 7.57H397.7a2.41 2.41 0 1 0 0 4.83h11.02a2.41 2.41 0 1 0 0-4.83m0 7.57H397.7a2.41 2.41 0 1 0 0 4.84h11.02a2.41 2.41 0 1 0 0-4.84m0 15.57h-13.67a2.42 2.42 0 0 0 0 4.83h13.67a2.42 2.42 0 0 0 0-4.83m0 8h-11.97a2.42 2.42 0 0 0 0 4.83h11.97a2.42 2.42 0 0 0 0-4.83m0 7.99h-11.97a2.41 2.41 0 1 0 0 4.83h11.97a2.41 2.41 0 1 0 0-4.83m0 7.57h-1.79a2.41 2.41 0 1 0 0 4.83h1.8a2.41 2.41 0 1 0 0-4.83m-.01 7.57h-13.67a2.42 2.42 0 0 0 0 4.83h13.67a2.42 2.42 0 0 0 0-4.83m0 7.99h-13.67a2.42 2.42 0 0 0 0 4.83h13.67a2.41 2.41 0 1 0 0-4.83m0 7.57h-13.67a2.41 2.41 0 1 0 0 4.83h13.67a2.41 2.41 0 1 0 0-4.83m0 7.58h-13.67a2.41 2.41 0 1 0 0 4.83h13.67a2.41 2.41 0 1 0 0-4.83m0 7.57h-13.67a2.41 2.41 0 1 0 0 4.83h13.67a2.42 2.42 0 0 0 0-4.83m0 7.58h-9.84a2.42 2.42 0 0 0 0 4.83h9.84a2.42 2.42 0 0 0 0-4.83m0-77.41h-.6a2.42 2.42 0 0 0 0 4.83h.6a2.42 2.42 0 1 0 0-4.83m-55.94-121.38H335.7a2.42 2.42 0 0 0 0 4.83h17.08a2.42 2.42 0 0 0 0-4.83m7.26 7.57H335.7a2.42 2.42 0 0 0 0 4.84h24.34a2.42 2.42 0 0 0 0-4.84m0 7.58H335.7a2.42 2.42 0 0 0 0 4.83h24.34a2.41 2.41 0 1 0 0-4.83m-2.24 7.57h-22.1a2.42 2.42 0 0 0 0 4.83h22.1a2.41 2.41 0 1 0 0-4.83m8.08 7.57H335.7a2.42 2.42 0 0 0 0 4.83h30.18a2.42 2.42 0 0 0 0-4.83m0 7.58H335.7a2.42 2.42 0 0 0 0 4.83h30.18a2.42 2.42 0 0 0 0-4.83M350 222.36h-14.3a2.42 2.42 0 0 0 0 4.83H350a2.42 2.42 0 0 0 0-4.84m2.78 7.58H335.7a2.42 2.42 0 0 0 0 4.83h17.08a2.41 2.41 0 1 0 0-4.83m0 7.57H335.7a2.42 2.42 0 0 0 0 4.83h17.08a2.41 2.41 0 1 0 0-4.83m2.52 7.58h-19.6a2.42 2.42 0 0 0 0 4.83h19.6a2.42 2.42 0 0 0 0-4.83m8.2 7.57h-27.8a2.42 2.42 0 0 0 0 4.83h27.8a2.42 2.42 0 0 0 0-4.83m-8.2 7.58h-19.6a2.42 2.42 0 0 0 0 4.83h19.6a2.42 2.42 0 1 0 0-4.83m5.95 7.57H335.7a2.42 2.42 0 0 0 0 4.83h25.55a2.41 2.41 0 1 0 0-4.83m10.8 7.77H335.7a2.42 2.42 0 0 0 0 4.83h36.35a2.42 2.42 0 0 0 0-4.83m-8.55 7.57h-27.8a2.42 2.42 0 0 0 0 4.83h27.8a2.41 2.41 0 1 0 0-4.83m-10.72 7.57H335.7a2.42 2.42 0 0 0 0 4.84h17.08a2.41 2.41 0 1 0 0-4.84m6.54 7.58h-17.08a2.42 2.42 0 0 0 0 4.83h17.08a2.41 2.41 0 1 0 0-4.83m0 7.99h-17.08a2.42 2.42 0 0 0 0 4.83h17.08a2.42 2.42 0 0 0 0-4.83m8.44 8h-25.52a2.42 2.42 0 0 0 0 4.83h25.52a2.42 2.42 0 0 0 0-4.83m-16.36 7.99h-9.16a2.42 2.42 0 0 0 0 4.83h9.16a2.41 2.41 0 1 0 0-4.83m0 15.14h-9.16a2.42 2.42 0 0 0 0 4.83h9.16a2.42 2.42 0 0 0 0-4.83m9.84 7.99h-19a2.42 2.42 0 0 0 0 4.83h19a2.41 2.41 0 1 0 0-4.83m0 7.57h-19a2.42 2.42 0 0 0 0 4.83h19a2.41 2.41 0 1 0 0-4.83m0 7.58h-19a2.42 2.42 0 0 0 0 4.83h19a2.41 2.41 0 1 0 0-4.83m0 7.57h-19a2.42 2.42 0 0 0 0 4.83h19a2.42 2.42 0 0 0 0-4.83m0 7.58h-19a2.42 2.42 0 0 0 0 4.83h19a2.42 2.42 0 0 0 0-4.83m4.64-45.86h-27.61a2.41 2.41 0 1 0 0 4.83h27.6a2.41 2.41 0 1 0 0-4.83"/><path fill="#fff" stroke="#00A35C" stroke-width="1.24" d="M528.04 134.41h-85.97a3.04 3.04 0 0 0-3.04 3.04V286.2a3.04 3.04 0 0 0 3.04 3.04h85.97a3.04 3.04 0 0 0 3.04-3.04V137.45a3.04 3.04 0 0 0-3.04-3.04Z"/><path stroke="#00A35C" stroke-width="1.24" d="M438.98 153.35h92.27"/><path fill="#00A35C" d="M446.91 146.86v-5.3h3.4v.8h-2.46v1.35h2.08v.79h-2.08v1.56h2.54v.8zm4.4 0v-3.98h.72l.07.5h.02q.14-.25.34-.43a1 1 0 0 1 .55-.17q.27 0 .46.17t.26.5q.14-.3.35-.48a.8.8 0 0 1 .56-.19q.42 0 .65.33t.23.93v2.82h-.9v-2.76q0-.52-.31-.52-.16 0-.28.12-.1.12-.23.38v2.78h-.78v-2.76a1 1 0 0 0-.07-.39q-.08-.13-.24-.13t-.27.12-.23.38v2.78zm5.15 1.57v-5.55h.77l.07.45h.02q.27-.25.6-.4a1.6 1.6 0 0 1 1.56.1q.36.25.55.7.2.46.2 1.08 0 .68-.25 1.16a2 2 0 0 1-.66.73q-.4.26-.86.26-.27 0-.56-.13-.28-.12-.53-.34h-.02l.05.7v1.24zm1.8-2.24a1 1 0 0 0 .52-.16q.23-.15.35-.45.13-.3.13-.76 0-.4-.1-.69a1 1 0 0 0-.3-.42 1 1 0 0 0-.52-.16q-.22 0-.46.11t-.48.37v1.8q.22.18.45.27t.41.09m5.63.77q-.68 0-1.05-.41a1.7 1.7 0 0 1-.36-1.14v-3.54h-1.3v-.73h2.24v4.32q0 .4.2.57t.51.16a2 2 0 0 0 .68-.15l.22.69-.54.16q-.24.06-.6.07m4.05 0q-.53 0-.98-.25a2 2 0 0 1-1.02-1.84q0-.66.29-1.12.28-.48.73-.72a2 2 0 0 1 .98-.25 2 2 0 0 1 1.72.97q.29.46.28 1.12t-.28 1.13a2 2 0 0 1-1.72.96m0-.77q.33 0 .56-.16a1 1 0 0 0 .36-.46q.12-.3.12-.7t-.12-.7a1 1 0 0 0-.36-.46 1 1 0 0 0-.56-.17q-.32 0-.56.17-.23.17-.35.47t-.12.7.12.69.35.46.56.16m3.54 2.3a2 2 0 0 1-.57-.08l.18-.72.34.05a1 1 0 0 0 .6-.2q.23-.18.35-.48l.1-.25-1.78-3.93h.93l.82 1.95.43 1.17h.04l.4-1.17.72-1.95h.88l-1.66 4.16q-.16.45-.4.77-.24.33-.57.5-.33.2-.8.19m6.42-1.53q-.6 0-1.1-.25t-.78-.71q-.3-.47-.3-1.13a2 2 0 0 1 1.06-1.84 2 2 0 0 1 1-.25q.6 0 1 .25.41.24.62.67a2 2 0 0 1 .2 1.24q0 .12-.02.2h-3.18v-.66h2.58l-.18.2q0-.58-.26-.88a1 1 0 0 0-.73-.3q-.33 0-.6.16-.26.15-.41.46-.16.3-.16.75 0 .46.17.76t.49.45q.3.15.73.15.3 0 .58-.08.27-.1.53-.25l.32.59q-.31.2-.71.34-.4.13-.85.13m4.87 0q-.62 0-1.1-.25-.5-.25-.8-.71-.29-.47-.29-1.13t.3-1.12a2 2 0 0 1 .76-.72 2 2 0 0 1 1-.25q.6 0 1 .25.41.24.62.67a2 2 0 0 1 .2 1.24q0 .12-.02.2h-3.18v-.66h2.58l-.18.2q0-.58-.26-.88a1 1 0 0 0-.73-.3q-.33 0-.6.16-.26.15-.42.46-.15.3-.15.75 0 .46.17.76t.49.45q.3.15.73.15.3 0 .58-.08.27-.1.53-.25l.32.59q-.32.2-.71.34a3 3 0 0 1-.85.13m4.63 0q-.55 0-1.06-.18a4 4 0 0 1-.89-.44l.4-.6q.37.24.78.38a3 3 0 0 0 .9.13q.41 0 .6-.14.2-.14.2-.34a.4.4 0 0 0-.2-.32q-.1-.08-.33-.14l-.56-.14a3 3 0 0 1-1.17-.46.9.9 0 0 1-.37-.74q0-.52.45-.86t1.3-.33q.48 0 .92.16t.74.37l-.43.57q-.3-.19-.63-.29t-.69-.1q-.26 0-.43.05-.15.06-.23.17a.4.4 0 0 0-.07.22q0 .2.24.31t.8.23q.63.14.98.31.36.18.48.4a1 1 0 0 1 .14.54 1 1 0 0 1-.22.63q-.21.27-.62.44t-1.03.17"/><path fill="#E8EDEB" d="M452.47 161.35h-4.34a2.41 2.41 0 1 0 0 4.83h4.34a2.41 2.41 0 1 0 0-4.83m68.69 0h-17.34a2.42 2.42 0 1 0 0 4.83h17.34a2.41 2.41 0 1 0 0-4.83m0 7.57h-11.87a2.41 2.41 0 1 0 0 4.83h11.87a2.42 2.42 0 0 0 0-4.83m0 7.58h-9.86a2.42 2.42 0 0 0 0 4.82h9.86a2.42 2.42 0 0 0 0-4.83m0 7.58h-9.86a2.42 2.42 0 0 0 0 4.83h9.86a2.42 2.42 0 0 0 0-4.83m0 7.58h-9.86a2.41 2.41 0 1 0 0 4.82h9.86a2.41 2.41 0 1 0 0-4.82m0 7.57h-9.86a2.41 2.41 0 1 0 0 4.83h9.86a2.41 2.41 0 1 0 0-4.83m0 7.58h-9.86a2.41 2.41 0 1 0 0 4.82h9.86a2.41 2.41 0 1 0 0-4.83m0 7.58h-3.83a2.42 2.42 0 0 0 0 4.83h3.83a2.42 2.42 0 0 0 0-4.83m0 7.57h-3.83a2.42 2.42 0 0 0 0 4.83h3.83a2.42 2.42 0 0 0 0-4.83m0 7.58h-9.86a2.41 2.41 0 1 0 0 4.83h9.86a2.41 2.41 0 1 0 0-4.83m0 7.57h-9.86a2.41 2.41 0 1 0 0 4.83h9.86a2.41 2.41 0 1 0 0-4.83m0 7.57h-9.86a2.41 2.41 0 1 0 0 4.83h9.86a2.41 2.41 0 1 0 0-4.83m0 7.58h-9.86a2.42 2.42 0 0 0 0 4.83h9.86a2.42 2.42 0 0 0 0-4.83m0 7.57h-9.86a2.42 2.42 0 0 0 0 4.83h9.86a2.41 2.41 0 1 0 0-4.83m0 7.77h-9.86a2.41 2.41 0 1 0 0 4.83h9.86a2.42 2.42 0 0 0 0-4.83m0 7.57h-9.86a2.42 2.42 0 0 0 0 4.83h9.86a2.42 2.42 0 0 0 0-4.83m0 39.12h-11.87a2.42 2.42 0 0 0 0 4.83h11.87a2.41 2.41 0 1 0 0-4.83m0 7.58h-11.87a2.41 2.41 0 1 0 0 4.83h11.87a2.41 2.41 0 1 0 0-4.83m0 7.58h-.07a2.41 2.41 0 1 0 0 4.83h.07a2.42 2.42 0 1 0 0-4.83m0 7.98h-13.67a2.42 2.42 0 0 0 0 4.83h13.67a2.42 2.42 0 0 0 0-4.83m0 7.57h-13.67a2.42 2.42 0 0 0 0 4.83h13.67a2.42 2.42 0 0 0 0-4.83m0 7.58h-13.67a2.42 2.42 0 0 0 0 4.83h13.67a2.42 2.42 0 0 0 0-4.83m0 7.57h-13.67a2.42 2.42 0 0 0 0 4.83h13.67a2.42 2.42 0 0 0 0-4.83m-46.18-191.21h-26.85a2.41 2.41 0 1 0 0 4.83h26.85a2.42 2.42 0 0 0 0-4.83m-5.35 7.58h-21.5a2.42 2.42 0 0 0 0 4.82h21.5a2.42 2.42 0 0 0 0-4.83m2.85 7.58h-24.35a2.42 2.42 0 0 0 0 4.83h24.35a2.42 2.42 0 0 0 0-4.83m-11.63 7.58h-12.72a2.41 2.41 0 1 0 0 4.82h12.72a2.42 2.42 0 1 0 0-4.82m28.05 7.57h-40.77a2.41 2.41 0 1 0 0 4.83h40.77a2.41 2.41 0 1 0 0-4.83m-17.15 7.58h-23.62a2.41 2.41 0 1 0 0 4.82h23.62a2.41 2.41 0 1 0 0-4.83m0 7.58h-23.62a2.42 2.42 0 0 0 0 4.83h23.62a2.42 2.42 0 0 0 0-4.83m-1.62 7.57h-22a2.42 2.42 0 0 0 0 4.83h22a2.42 2.42 0 0 0 0-4.83m-2.93 7.58h-19.07a2.41 2.41 0 1 0 0 4.83h19.08a2.42 2.42 0 0 0 0-4.83m-8.48 7.57h-10.6a2.41 2.41 0 1 0 0 4.83h10.6a2.42 2.42 0 0 0 0-4.83m5.45 7.57h-16.05a2.41 2.41 0 1 0 0 4.83h16.05a2.41 2.41 0 1 0 0-4.83m10.6 7.58h-26.65a2.42 2.42 0 0 0 0 4.83h26.65a2.42 2.42 0 0 0 0-4.83m-7.58 7.57h-19.07a2.42 2.42 0 0 0 0 4.83h19.08a2.42 2.42 0 0 0 0-4.83m-1.01 7.77h-18.07a2.41 2.41 0 1 0 0 4.83h18.07a2.42 2.42 0 0 0 0-4.83m6.28 7.57h-24.35a2.42 2.42 0 0 0 0 4.83h24.35a2.42 2.42 0 0 0 0-4.83"/><path fill="#fff" stroke="#00A35C" stroke-width="1.24" d="M183.12 113.87H99.08a3.04 3.04 0 0 0-3.04 3.04v84.79a3.04 3.04 0 0 0 3.04 3.04h84.04a3.04 3.04 0 0 0 3.04-3.04v-84.8a3.04 3.04 0 0 0-3.04-3.03Z"/><path stroke="#00A35C" stroke-width="1.24" d="M95.9 131.93h90.88"/><path fill="#00A35C" d="M104.41 125.93q-.5 0-.93-.18a2.2 2.2 0 0 1-1.27-1.38 4 4 0 0 1-.18-1.17q0-.87.31-1.48a2.3 2.3 0 0 1 2.13-1.28q.5 0 .89.2t.63.46l-.52.59a1.3 1.3 0 0 0-1-.43q-.44 0-.77.23-.34.23-.52.66-.2.42-.19 1.03 0 .6.19 1.03t.52.68q.35.22.8.22.33 0 .6-.13.25-.15.48-.4l.52.58q-.32.37-.74.58t-.95.2m3.89 0q-.7 0-1.02-.42a2 2 0 0 1-.31-1.19v-2.46h.93v2.34q0 .48.16.7.17.23.58.23a1 1 0 0 0 .5-.13q.25-.15.5-.46v-2.69h.93v3.99h-.76l-.07-.64h-.03q-.3.33-.63.53-.34.2-.78.2m5.42 0q-.57 0-1.07-.18a4 4 0 0 1-.89-.43l.4-.6q.37.24.78.38.4.13.9.13.4 0 .6-.14t.2-.34a.4.4 0 0 0-.2-.32q-.1-.08-.33-.14l-.56-.14a3 3 0 0 1-1.17-.46.9.9 0 0 1-.37-.74q0-.53.45-.86t1.3-.33q.49 0 .92.16t.74.36l-.43.58q-.3-.2-.63-.29a2 2 0 0 0-.69-.1q-.26 0-.42.05t-.24.16a.4.4 0 0 0-.07.22q0 .21.24.32.24.1.8.22.63.15.98.32.36.17.48.4a1 1 0 0 1 .14.54 1 1 0 0 1-.22.63q-.21.27-.62.44t-1.02.16m5.57 0q-.6 0-.97-.2-.35-.23-.5-.6-.16-.39-.16-.9v-1.64h-1.06v-.7l1.1-.03.12-1.25h.77v1.25h1.82v.73h-1.82v1.64q0 .33.09.54t.3.32q.19.1.53.1a3 3 0 0 0 .87-.16l.18.68a5 5 0 0 1-1.27.22m4.12 0q-.53 0-.98-.24a2 2 0 0 1-1.02-1.84q0-.66.28-1.13.3-.47.74-.71a2 2 0 0 1 .98-.25 2 2 0 0 1 2 2.09q0 .66-.28 1.13a2 2 0 0 1-1.72.95m0-.76q.33 0 .56-.16a1 1 0 0 0 .36-.46q.12-.3.12-.7t-.12-.7a1 1 0 0 0-.36-.46 1 1 0 0 0-.56-.17q-.33 0-.56.17-.23.16-.36.46t-.12.7.12.7q.13.3.36.46t.56.16m2.8.67v-3.98h.72l.07.5h.03q.14-.26.33-.43a1 1 0 0 1 .55-.17q.28 0 .47.17.18.15.25.5.15-.3.35-.48a.8.8 0 0 1 .56-.2q.42 0 .65.34.24.33.24.92v2.83h-.9v-2.76q0-.53-.32-.53-.15 0-.28.12-.1.12-.22.39v2.78h-.78v-2.76q0-.25-.07-.39t-.25-.14q-.15 0-.27.12-.11.12-.22.39v2.78zm7.16.1q-.6 0-1.1-.25t-.79-.71q-.3-.48-.29-1.14a2 2 0 0 1 1.06-1.83 2 2 0 0 1 1-.25q.6 0 1 .24t.62.67a2 2 0 0 1 .2 1.25l-.02.2h-3.19v-.67h2.59l-.18.21q0-.6-.27-.88a1 1 0 0 0-.73-.3q-.33 0-.6.15-.25.15-.4.47-.16.3-.16.74 0 .45.17.76.18.3.48.46.33.15.73.15.31 0 .59-.09.26-.09.53-.24l.32.58q-.31.2-.72.34-.39.13-.84.13m3.24-.1v-3.98h.77l.08.9h.03q.3-.49.73-.74a1.9 1.9 0 0 1 1.73-.1l-.2.79a2 2 0 0 0-.72-.12q-.4 0-.8.23-.36.24-.68.82v2.2zm6.26.1q-.56 0-1.07-.19a4 4 0 0 1-.88-.43l.4-.6q.36.24.77.38.42.13.9.13.42 0 .61-.14.2-.15.2-.34a.4.4 0 0 0-.2-.32q-.11-.08-.33-.14l-.57-.14a3 3 0 0 1-1.17-.46.9.9 0 0 1-.37-.74q0-.53.46-.86t1.3-.33q.48 0 .92.16.43.16.73.36l-.43.58q-.28-.2-.62-.29a2 2 0 0 0-.69-.1q-.27 0-.43.05t-.23.16a.4.4 0 0 0-.08.22q0 .21.25.32.24.1.8.22.63.15.98.32t.48.4a1 1 0 0 1 .14.54 1 1 0 0 1-.22.63q-.21.27-.63.44-.4.16-1.02.16"/><path fill="#E8EDEB" d="M131.64 136.42h-27.65a2.42 2.42 0 1 0 0 4.84h27.64a2.42 2.42 0 0 0 0-4.84m46.61 0h-7.25a2.42 2.42 0 1 0 0 4.84h7.25a2.42 2.42 0 1 0 0-4.84m0 7.6h-15.56a2.42 2.42 0 1 0 0 4.83h15.56a2.42 2.42 0 0 0 0-4.83m0 7.6h-15.56a2.42 2.42 0 1 0 0 4.83h15.56a2.42 2.42 0 0 0 0-4.83m0 7.72h-15.56a2.42 2.42 0 1 0 0 4.83h15.56a2.42 2.42 0 0 0 0-4.83m0 7.46h-15.56a2.42 2.42 0 1 0 0 4.84h15.56a2.42 2.42 0 0 0 0-4.83m0 7.59h-15.56a2.42 2.42 0 1 0 0 4.84h15.56a2.42 2.42 0 0 0 0-4.83m0 7.59h-15.56a2.42 2.42 0 1 0 0 4.83h15.56a2.42 2.42 0 0 0 0-4.83m0 7.6h-15.56a2.42 2.42 0 1 0 0 4.83h15.56a2.42 2.42 0 0 0 0-4.83m-44.11-45.58H104a2.42 2.42 0 1 0 0 4.83h30.14a2.42 2.42 0 0 0 0-4.83m-.01 7.6H104a2.42 2.42 0 1 0 0 4.83h30.14a2.42 2.42 0 1 0 0-4.83m2.65 7.59h-32.8a2.42 2.42 0 1 0 0 4.83h32.8a2.42 2.42 0 1 0 0-4.83m-13.59 7.59H104a2.42 2.42 0 1 0 0 4.84h19.22a2.42 2.42 0 0 0 0-4.83m-9.12 7.59H104a2.42 2.42 0 1 0 0 4.84h10.11a2.42 2.42 0 1 0 0-4.83m-1.66 7.59h-8.46a2.42 2.42 0 1 0 0 4.83h8.46a2.42 2.42 0 0 0 0-4.83m.74 7.6h-9.2a2.42 2.42 0 1 0 0 4.83h9.2a2.42 2.42 0 1 0 0-4.83"/><path fill="#fff" stroke="#00A35C" stroke-width="1.24" d="M528.6 308.58h-85.97a3.04 3.04 0 0 0-3.04 3.04v83.96a3.04 3.04 0 0 0 3.05 3.04h85.96a3.04 3.04 0 0 0 3.04-3.04v-83.96a3.04 3.04 0 0 0-3.04-3.04Z"/><path stroke="#00A35C" stroke-width="1.24" d="M439.45 326.35h92.47"/><path fill="#00A35C" d="M447.82 321.33q-.5 0-.93-.18a2.2 2.2 0 0 1-1.27-1.39 4 4 0 0 1-.18-1.16q0-.87.32-1.49a2.3 2.3 0 0 1 2.13-1.28q.5 0 .88.2.39.21.63.47l-.51.58a1.3 1.3 0 0 0-1-.43q-.44 0-.78.24t-.52.65-.18 1.03.18 1.04.53.67q.35.23.8.23.32 0 .58-.14t.5-.39l.51.58q-.32.38-.74.57-.42.2-.95.2m3.9 0q-.7 0-1.02-.43a2 2 0 0 1-.32-1.19v-2.46h.93v2.34q0 .49.17.7.15.24.58.23a1 1 0 0 0 .5-.12q.24-.14.5-.47v-2.68h.93v3.98h-.76l-.08-.63h-.03q-.29.32-.62.52-.35.2-.79.2m5.4 0q-.55 0-1.06-.18a4 4 0 0 1-.88-.44l.4-.6q.36.25.77.38t.9.13q.42 0 .6-.14.21-.14.21-.34a.4.4 0 0 0-.2-.32q-.12-.08-.33-.14l-.57-.14a3 3 0 0 1-1.17-.46.9.9 0 0 1-.37-.74q0-.52.45-.85.46-.34 1.3-.34.5 0 .92.17.44.16.74.36l-.43.57q-.29-.18-.62-.29-.34-.1-.7-.1-.25 0-.42.06-.15.05-.24.16a.4.4 0 0 0-.07.22q0 .2.25.31.24.1.79.23.64.14.99.31.35.18.48.4a1 1 0 0 1 .13.55 1 1 0 0 1-.22.62q-.2.27-.62.44-.4.17-1.02.17m5.58 0q-.6 0-.96-.21-.36-.23-.51-.6-.16-.39-.16-.89V318h-1.06v-.7l1.1-.04.13-1.25h.76v1.25h1.82v.74h-1.81v1.63q0 .33.08.55.09.2.3.31.19.1.53.1a3 3 0 0 0 .88-.15l.17.67-.57.15q-.3.08-.7.08m4.12 0q-.52 0-.98-.25a2 2 0 0 1-1.02-1.84q0-.66.29-1.12t.73-.72a2 2 0 0 1 .98-.25 2 2 0 0 1 2 2.1q0 .64-.28 1.12a2 2 0 0 1-1.72.96m0-.76q.32 0 .56-.17a1 1 0 0 0 .36-.46q.12-.3.12-.7t-.12-.7a1 1 0 0 0-.36-.46 1 1 0 0 0-.56-.16q-.32 0-.56.16-.23.17-.35.47t-.12.7.12.7.35.45.56.17m2.8.66v-3.98h.73l.07.5h.02q.13-.25.33-.43a1 1 0 0 1 .56-.17q.27 0 .46.17.18.17.26.5.13-.3.35-.48a.8.8 0 0 1 .56-.19q.43 0 .64.34.24.32.24.92v2.82h-.9v-2.76q0-.52-.32-.52-.16 0-.27.12-.1.11-.23.38v2.78h-.78v-2.76q0-.26-.07-.39t-.24-.13-.27.12q-.11.11-.23.38v2.78zm7.17.1q-.62 0-1.1-.25-.5-.24-.8-.71-.28-.48-.28-1.13t.29-1.12a2 2 0 0 1 .76-.72 2 2 0 0 1 1-.25q.6 0 1 .25.41.24.63.67a2 2 0 0 1 .2 1.24q0 .12-.03.2h-3.18v-.66h2.58l-.18.2q0-.58-.26-.88a1 1 0 0 0-.73-.3q-.33 0-.6.16-.26.15-.41.46-.16.3-.16.75t.17.76.49.45q.3.15.73.16.3 0 .58-.1.27-.07.54-.24l.31.59q-.31.2-.71.34a3 3 0 0 1-.84.13m3.23-.1v-3.98h.77l.08.9h.03q.3-.48.74-.74.45-.26.95-.26.25 0 .43.04t.34.13l-.2.78a2 2 0 0 0-.71-.12q-.4 0-.8.23-.37.24-.69.82v2.2zm6.27.1q-.56 0-1.07-.18a4 4 0 0 1-.89-.44l.4-.6q.37.25.78.38.4.13.9.13.4 0 .6-.14t.2-.34a.4.4 0 0 0-.2-.32q-.1-.08-.33-.14l-.56-.14a3 3 0 0 1-1.17-.46.9.9 0 0 1-.37-.74q0-.52.45-.85.46-.34 1.3-.34.49 0 .92.17.45.16.74.36l-.43.57q-.3-.18-.63-.29t-.69-.1q-.26 0-.43.06-.15.05-.23.16a.4.4 0 0 0-.07.22q0 .2.24.31t.8.23q.63.14.98.31.36.18.48.4a1 1 0 0 1 .14.55 1 1 0 0 1-.22.62q-.21.27-.62.44t-1.02.17"/><path fill="#E8EDEB" d="M454.92 331.14h-6.22a2.42 2.42 0 1 0 0 4.83h6.22a2.42 2.42 0 0 0 0-4.83m66.8 0h-17.96a2.42 2.42 0 1 0 0 4.83h17.96a2.42 2.42 0 1 0 0-4.83m0 7.59h-15.56a2.42 2.42 0 0 0 0 4.84h15.56a2.42 2.42 0 1 0 0-4.84m0 7.6h-15.56a2.42 2.42 0 1 0 0 4.83h15.56a2.42 2.42 0 1 0 0-4.83m0 7.73h-15.56a2.42 2.42 0 1 0 0 4.83h15.56a2.42 2.42 0 1 0 0-4.83m0 7.46h-15.56a2.42 2.42 0 0 0 0 4.84h15.56a2.42 2.42 0 1 0 0-4.84m0 7.6h-15.56a2.42 2.42 0 1 0 0 4.83h15.56a2.42 2.42 0 1 0 0-4.83m0 7.6h-15.56a2.42 2.42 0 1 0 0 4.83h15.56a2.42 2.42 0 1 0 0-4.84m0 7.6h-15.56a2.42 2.42 0 0 0 0 4.84h15.56a2.42 2.42 0 0 0 0-4.84m-49.69-45.58H448.7a2.42 2.42 0 0 0 0 4.84h23.33a2.42 2.42 0 1 0 0-4.84m2.97 7.6h-26.3a2.42 2.42 0 1 0 0 4.83H475a2.42 2.42 0 1 0 0-4.83m0 7.6h-26.3a2.42 2.42 0 1 0 0 4.83H475a2.42 2.42 0 1 0 0-4.83m2.16 7.59H448.7a2.42 2.42 0 0 0 0 4.84h28.46a2.42 2.42 0 1 0 0-4.84m-11.78 7.6H448.7a2.42 2.42 0 1 0 0 4.83h16.68a2.42 2.42 0 1 0 0-4.83m-8.22 7.6h-8.46a2.42 2.42 0 1 0 0 4.83h8.46a2.42 2.42 0 0 0 0-4.84m2.7 7.6H448.7a2.42 2.42 0 0 0 0 4.84h11.16a2.42 2.42 0 0 0 0-4.84"/><path fill="#fff" stroke="#00A35C" stroke-width="1.24" d="M183.12 222.93H99.08a3.04 3.04 0 0 0-3.04 3.04v76.7a3.04 3.04 0 0 0 3.04 3.03h84.04a3.04 3.04 0 0 0 3.04-3.04v-76.69a3.04 3.04 0 0 0-3.04-3.04Z"/><path stroke="#00A35C" stroke-width="1.24" d="M95.9 240.7h90.88"/><path fill="#00A35C" d="M102.26 235.9v-5.3H104q.59 0 1.04.15t.71.51.27.98q0 .57-.27.96-.25.38-.72.57t-1.03.18h-.8v1.95zm.94-2.7h.73q.6 0 .87-.24.3-.25.3-.72 0-.5-.3-.7t-.87-.19h-.73zm4.26 2.7v-3.98h.77l.08.9h.02q.3-.49.74-.74a1.9 1.9 0 0 1 1.73-.1l-.2.79a2 2 0 0 0-.72-.12q-.4 0-.8.23-.38.24-.68.82v2.2zm6.24.1q-.53 0-.98-.25a2 2 0 0 1-1.03-1.84q0-.66.29-1.12t.73-.72.98-.25a2 2 0 0 1 2 2.1q0 .64-.28 1.12a2 2 0 0 1-1.72.96m0-.77q.32 0 .55-.16a1 1 0 0 0 .36-.46q.12-.3.12-.7t-.12-.7a1 1 0 0 0-.36-.46 1 1 0 0 0-.56-.17q-.32 0-.55.17-.23.16-.36.47t-.12.7.12.69q.13.3.36.46.23.15.55.16m4.55.77q-.75 0-1.23-.56a2.3 2.3 0 0 1-.47-1.53q0-.64.25-1.12.25-.46.66-.72a1.6 1.6 0 0 1 1.45-.13q.27.12.5.35h.02l-.05-.67v-1.44h.94v5.72h-.77l-.07-.46h-.03q-.23.22-.54.4-.31.16-.66.16m.23-.78q.24 0 .47-.1.23-.13.43-.37v-1.8a1.2 1.2 0 0 0-.85-.36 1 1 0 0 0-.51.16q-.23.15-.36.44-.14.3-.14.71 0 .65.25.98.25.34.71.34m4.4.78q-.7 0-1.01-.43a2 2 0 0 1-.32-1.19v-2.46h.93v2.34q0 .48.16.7.18.23.59.23a1 1 0 0 0 .5-.13q.23-.13.5-.46v-2.68h.93v3.98h-.77l-.07-.63h-.03q-.29.32-.62.52-.35.2-.8.2m5.75 0q-.63 0-1.13-.25t-.78-.71a2 2 0 0 1-.29-1.13q0-.66.31-1.12t.84-.72a2.5 2.5 0 0 1 1.97-.09q.38.16.62.4l-.45.58a2 2 0 0 0-.47-.28q-.24-.1-.5-.1-.4 0-.71.17-.3.16-.47.47t-.17.7.16.69.46.46.7.16q.34 0 .62-.13.3-.13.51-.3l.4.6a2.4 2.4 0 0 1-1.62.6m5.24 0q-.6 0-.96-.22-.36-.21-.51-.6-.16-.37-.16-.88v-1.64h-1.06v-.7l1.1-.04.12-1.25h.77v1.25H135v.74h-1.82v1.63q0 .33.1.55.08.2.28.31t.54.1a3 3 0 0 0 .87-.16l.18.68a5 5 0 0 1-1.27.22m4.15 0q-.56 0-1.07-.18a4 4 0 0 1-.89-.44l.4-.6q.37.24.78.38.4.13.9.13.41 0 .6-.14.2-.14.2-.34a.4.4 0 0 0-.2-.32q-.1-.08-.33-.14l-.56-.14a3 3 0 0 1-1.17-.46.9.9 0 0 1-.37-.74q0-.52.45-.86.46-.33 1.3-.33.49 0 .92.16t.74.37l-.43.57q-.3-.19-.63-.29t-.68-.1q-.28 0-.43.05-.16.06-.24.16a.4.4 0 0 0-.07.22q0 .21.24.32.24.1.8.23.63.14.98.31.36.18.48.4a1 1 0 0 1 .14.54 1 1 0 0 1-.22.63q-.21.27-.62.44t-1.02.16"/><path fill="#E8EDEB" d="M128.48 245.49h-24.5a2.42 2.42 0 1 0 0 4.83h24.5a2.42 2.42 0 1 0 0-4.83m49.76 0h-21.18a2.42 2.42 0 0 0 0 4.83h21.18a2.42 2.42 0 1 0 0-4.83m-.01 7.59h-19.26a2.42 2.42 0 1 0 0 4.84h19.26a2.42 2.42 0 1 0 0-4.84m0 7.6h-2.4a2.42 2.42 0 1 0 0 4.83h2.4a2.42 2.42 0 1 0 0-4.83m0 7.72h-2.4a2.42 2.42 0 1 0 0 4.84h2.4a2.42 2.42 0 1 0 0-4.84m.01 7.47h-15.56a2.42 2.42 0 1 0 0 4.83h15.56a2.42 2.42 0 0 0 0-4.83m0 7.6h-8.71a2.42 2.42 0 1 0 0 4.83h8.7a2.42 2.42 0 1 0 0-4.83m.01 7.59h-15.56a2.42 2.42 0 0 0 0 4.84h15.56a2.42 2.42 0 0 0 0-4.84m-44.11-37.98H104a2.42 2.42 0 1 0 0 4.84h30.14a2.42 2.42 0 1 0 0-4.84m-4.34 7.6H104a2.42 2.42 0 1 0 0 4.83h25.81a2.42 2.42 0 1 0 0-4.83m-.01 7.6H104a2.42 2.42 0 1 0 0 4.83h25.81a2.42 2.42 0 1 0 0-4.83m14.07 7.59h-39.9a2.42 2.42 0 1 0 0 4.83h39.9a2.42 2.42 0 1 0 0-4.83m-15.4 7.6h-24.5a2.42 2.42 0 1 0 0 4.83h24.5a2.42 2.42 0 1 0 0-4.83m5.65 7.59H104a2.42 2.42 0 0 0 0 4.84h30.14a2.42 2.42 0 0 0 0-4.84"/><path fill="#fff" stroke="#00A35C" stroke-width="1.24" d="M183.6 321.9H99.56a3.04 3.04 0 0 0-3.04 3.04v91.08a3.04 3.04 0 0 0 3.04 3.04h84.04a3.04 3.04 0 0 0 3.04-3.04v-91.08a3.04 3.04 0 0 0-3.04-3.04Z"/><path stroke="#00A35C" stroke-width="1.24" d="M96.38 339.39h90.88"/><path fill="#00A35C" d="M103.99 333.7a3 3 0 0 1-1.98-.79l.55-.64q.3.27.68.44.4.15.8.16.47 0 .71-.18a.6.6 0 0 0 .25-.46.6.6 0 0 0-.12-.37 1 1 0 0 0-.31-.24l-.47-.2-.72-.32a3 3 0 0 1-.54-.3 2 2 0 0 1-.43-.45q-.16-.27-.16-.66 0-.42.23-.76.24-.33.65-.53t.96-.2q.48 0 .92.18t.78.49l-.49.6a2 2 0 0 0-.56-.33 2 2 0 0 0-.7-.12q-.37 0-.61.16a.5.5 0 0 0-.24.46q0 .2.14.33.13.13.33.23l.44.19.7.3q.35.12.6.31.25.2.4.46.15.27.15.66 0 .43-.23.78-.24.37-.68.58t-1.05.21m4.3 0q-.7 0-1-.43a2 2 0 0 1-.32-1.2v-2.45h.93v2.34q0 .48.16.7.18.23.59.23.27 0 .5-.13.23-.15.5-.46v-2.69h.92v3.98h-.76l-.07-.63h-.03q-.3.33-.63.53t-.78.2m3.63 1.47v-5.56h.77l.08.46h.02q.25-.25.6-.4a1.6 1.6 0 0 1 1.56.1q.36.25.55.7t.2 1.07q0 .68-.26 1.16-.24.48-.65.74-.4.25-.86.25-.27 0-.56-.12t-.53-.35h-.02l.05.7v1.25zm1.81-2.25q.3 0 .51-.15.23-.16.36-.46t.13-.76q0-.4-.1-.68a1 1 0 0 0-.3-.43 1 1 0 0 0-.52-.15q-.23 0-.47.11t-.47.37v1.79q.22.2.45.28t.41.08m3.05 2.25v-5.56h.78l.07.46h.02q.26-.25.6-.4t.67-.15q.53 0 .89.25.35.25.55.7t.2 1.07q-.01.68-.26 1.16t-.65.74-.86.25q-.27 0-.56-.12a2 2 0 0 1-.53-.35h-.02l.04.7v1.25zm1.81-2.25q.3 0 .51-.15.23-.16.36-.46t.13-.76q0-.4-.1-.68a1 1 0 0 0-.3-.43 1 1 0 0 0-.52-.15q-.23 0-.47.11t-.48.37v1.79q.22.2.46.28t.41.08m5.63.77q-.68 0-1.05-.4a1.7 1.7 0 0 1-.36-1.15v-3.53h-1.3v-.74h2.23v4.32q0 .4.2.58.22.16.52.16a2 2 0 0 0 .68-.15l.22.68-.54.17q-.24.06-.6.06m4.03-.1v-3.24h-1.73v-.74h2.66v3.98zm.4-4.7a.7.7 0 0 1-.49-.18.6.6 0 0 1-.18-.45q0-.29.18-.45a.7.7 0 0 1 .48-.18q.3 0 .48.18.2.16.19.45 0 .3-.19.45a.7.7 0 0 1-.48.18m4.72 4.8q-.6 0-1.1-.24-.5-.25-.79-.71-.29-.48-.29-1.14 0-.64.3-1.11a2.1 2.1 0 0 1 1.77-.97q.59 0 .99.24.4.25.62.67a2 2 0 0 1 .2 1.24q0 .12-.02.2h-3.19v-.66h2.59l-.18.21q0-.6-.27-.88a1 1 0 0 0-.72-.3q-.34 0-.6.15t-.42.47-.15.74q0 .45.17.76.18.3.48.46.33.15.73.15.32 0 .59-.09t.53-.24l.32.58q-.32.2-.72.34a3 3 0 0 1-.84.13m3.24-.1v-3.97h.77l.08.9h.03q.3-.49.73-.74.45-.27.96-.26.24 0 .42.04t.35.12l-.2.79a2 2 0 0 0-.72-.13q-.4 0-.79.24-.37.24-.69.82v2.2zm6.26.1q-.56 0-1.07-.18a4 4 0 0 1-.88-.44l.4-.59q.36.24.77.38.42.12.9.13.42 0 .61-.14.2-.15.2-.34a.4.4 0 0 0-.2-.32q-.11-.09-.33-.14l-.57-.14a3 3 0 0 1-1.16-.46.9.9 0 0 1-.38-.74q0-.53.46-.86t1.3-.33q.48 0 .92.16.43.16.73.36l-.42.58q-.3-.2-.63-.3-.34-.1-.69-.1-.27 0-.43.06a.5.5 0 0 0-.23.16.4.4 0 0 0-.08.22q0 .21.25.32.23.1.8.22.63.14.98.32t.48.4a1 1 0 0 1 .14.54 1 1 0 0 1-.22.62q-.21.29-.63.45-.4.15-1.02.16"/><path fill="#E8EDEB" d="M131.73 344.46h-27.27a2.42 2.42 0 1 0 0 4.83h27.27a2.42 2.42 0 1 0 0-4.83m46.97 0h-21.16a2.42 2.42 0 1 0 0 4.83h21.17a2.42 2.42 0 1 0 0-4.83m0 7.6h-19.26a2.42 2.42 0 1 0 0 4.83h19.26a2.42 2.42 0 1 0 0-4.83m0 7.59h-15.56a2.42 2.42 0 1 0 0 4.84h15.56a2.42 2.42 0 1 0 0-4.84m0 7.73h-15.56a2.42 2.42 0 1 0 0 4.83h15.56a2.42 2.42 0 1 0 0-4.83m0 7.46h-15.56a2.42 2.42 0 1 0 0 4.84h15.56a2.42 2.42 0 1 0 0-4.84m0 7.6h-15.56a2.42 2.42 0 0 0 0 4.83h15.56a2.42 2.42 0 1 0 0-4.83m0 7.6h-15.56a2.42 2.42 0 1 0 0 4.83h15.56a2.42 2.42 0 1 0 0-4.83m-44.1-37.98h-30.15a2.42 2.42 0 1 0 0 4.83h30.15a2.42 2.42 0 0 0 0-4.83m0 7.59h-30.15a2.42 2.42 0 1 0 0 4.84h30.15a2.42 2.42 0 0 0 0-4.84m2.95 7.6h-33.1a2.42 2.42 0 1 0 0 4.83h33.1a2.42 2.42 0 1 0 0-4.83m-13.84 7.59h-19.26a2.42 2.42 0 1 0 0 4.84h19.26a2.42 2.42 0 1 0 0-4.84m-8.02 7.6h-11.24a2.42 2.42 0 0 0 0 4.83h11.25a2.42 2.42 0 1 0 0-4.83m4.85 7.6h-16.1a2.42 2.42 0 1 0 0 4.83h16.1a2.42 2.42 0 1 0 0-4.83"/><path fill="#fff" stroke="#00A35C" stroke-width="1.24" d="M295.06 263.74h-85.97a3.04 3.04 0 0 0-3.04 3.04v46.84a3.04 3.04 0 0 0 3.04 3.04h85.97a3.04 3.04 0 0 0 3.04-3.05v-46.83a3.04 3.04 0 0 0-3.05-3.04Z"/><path stroke="#00A35C" stroke-width="1.24" d="M205.9 281.08h92.45"/><path fill="#00A35C" d="M213.6 275.57q-.61 0-1.09-.32a2 2 0 0 1-.73-.94 4 4 0 0 1-.26-1.51q0-.87.25-1.48.27-.6.74-.93a2 2 0 0 1 1.09-.31q.6 0 1.09.31.46.31.72.93.27.6.27 1.48 0 .9-.27 1.5a2 2 0 0 1-.72.95q-.48.32-1.1.32m0-.82q.34 0 .59-.23t.39-.66q.14-.45.14-1.06 0-.6-.14-1.03a1.4 1.4 0 0 0-.39-.65 1 1 0 0 0-.6-.23 1 1 0 0 0-.58.23q-.25.22-.4.65-.13.42-.13 1.03t.14 1.06q.14.44.39.66.24.24.59.23m3.48.72v-3.98h.77l.08.9h.03q.3-.48.73-.74a1.9 1.9 0 0 1 1.73-.1l-.2.8a2 2 0 0 0-.72-.13q-.4 0-.8.24-.36.23-.68.82v2.2zm5.94.1q-.76 0-1.23-.55a2.3 2.3 0 0 1-.47-1.53q0-.65.25-1.12.24-.47.65-.72a1.6 1.6 0 0 1 1.45-.13q.27.12.5.35h.02l-.05-.68v-1.44h.94v5.72h-.77l-.07-.46h-.02a2 2 0 0 1-.55.4q-.31.16-.65.16m.22-.77q.25 0 .47-.11.24-.12.43-.37v-1.79a1.2 1.2 0 0 0-.85-.37 1 1 0 0 0-.5.16q-.24.15-.37.45-.14.29-.14.7 0 .65.25.99.26.34.71.34m5.18.77q-.6 0-1.1-.24-.5-.25-.79-.72t-.29-1.13.3-1.11a2 2 0 0 1 .75-.72 2 2 0 0 1 1-.25q.6 0 1 .24.42.24.63.67a2 2 0 0 1 .2 1.24l-.02.2h-3.19v-.66h2.59l-.18.21q0-.6-.27-.88a1 1 0 0 0-.73-.3q-.33 0-.6.15-.25.16-.41.46t-.15.75.17.76.48.45q.32.16.73.16.31 0 .59-.1.26-.08.53-.23l.32.58q-.32.2-.72.34-.39.13-.84.13m3.24-.1v-3.98h.77l.08.9h.02q.3-.48.74-.74a1.9 1.9 0 0 1 1.73-.1l-.2.8a2 2 0 0 0-.72-.13q-.4 0-.8.24-.38.23-.68.82v2.2zm9.3 0v-5.3h1.39q.78 0 1.34.3.56.29.86.87t.3 1.46-.3 1.48-.85.9-1.3.3zm.94-.76h.4q.5 0 .85-.2.36-.21.54-.63.2-.42.2-1.08 0-.65-.2-1.06-.18-.42-.54-.61-.35-.2-.86-.2h-.4zm5.96.86q-.61 0-1.1-.24-.5-.25-.8-.72-.28-.47-.28-1.13a2.03 2.03 0 0 1 2.06-2.08q.58 0 1 .24.4.24.62.67a2 2 0 0 1 .2 1.24q0 .12-.03.2h-3.18v-.66h2.59l-.18.21q0-.6-.27-.88a1 1 0 0 0-.73-.3q-.33 0-.6.15-.26.16-.41.46t-.16.75.17.76.49.45.73.16q.3 0 .58-.1.27-.08.54-.23l.31.58q-.3.2-.71.34-.4.13-.84.13m5.35 0q-.6 0-.96-.21-.36-.23-.51-.6-.16-.38-.16-.88v-1.65h-1.06v-.7l1.1-.04.12-1.25h.77v1.25h1.82v.74h-1.82v1.64q0 .32.1.54.08.21.28.32.21.1.54.1a3 3 0 0 0 .88-.16l.17.67a5 5 0 0 1-1.27.23m3.6 0q-.4 0-.7-.15a1 1 0 0 1-.46-.41 1 1 0 0 1-.17-.6q0-.68.63-1.02.64-.37 2.11-.46a1 1 0 0 0-.12-.4 1 1 0 0 0-.3-.27q-.2-.1-.52-.11-.22 0-.45.06t-.44.15l-.42.21-.34-.62a4 4 0 0 1 1.82-.55q.56 0 .93.2.38.2.57.58.2.39.2.93v2.36h-.76l-.07-.5h-.02q-.32.25-.7.43a2 2 0 0 1-.8.17m.28-.73q.3 0 .58-.13.28-.14.55-.36v-.84a6 6 0 0 0-1.11.16q-.4.1-.57.28a.5.5 0 0 0-.16.38q0 .18.1.3.09.1.25.16.15.05.36.05m5.08.63v-3.24h-1.73v-.74h2.66v3.98zm.4-4.7a.7.7 0 0 1-.48-.18.6.6 0 0 1-.19-.45q0-.28.19-.45a.7.7 0 0 1 .48-.18q.29 0 .47.18.2.17.19.45 0 .28-.19.45a.7.7 0 0 1-.48.17m5.3 4.8q-.7 0-1.06-.4a1.7 1.7 0 0 1-.36-1.15v-3.53h-1.3v-.74h2.23v4.32q0 .4.2.58.22.16.52.16a2 2 0 0 0 .68-.16l.22.7-.54.15q-.24.07-.6.07m4.06 0q-.55 0-1.06-.18a4 4 0 0 1-.89-.44l.4-.59q.37.24.78.38a3 3 0 0 0 .9.13q.41 0 .6-.14.2-.15.2-.34a.4.4 0 0 0-.2-.32q-.1-.09-.33-.14l-.56-.14a3 3 0 0 1-1.17-.47.9.9 0 0 1-.37-.73q0-.53.45-.86.46-.33 1.3-.33.48 0 .92.16t.74.36l-.43.58q-.3-.2-.63-.3t-.69-.1q-.26 0-.43.06-.15.06-.23.16a.4.4 0 0 0-.07.22q0 .22.24.31.24.1.8.23.63.14.98.32.36.16.48.4a1 1 0 0 1 .14.54 1 1 0 0 1-.22.62q-.21.28-.62.45t-1.02.16"/><path fill="#E8EDEB" d="M240.96 286.3h-25.81a2.42 2.42 0 0 0 0 4.83h25.81a2.42 2.42 0 1 0 0-4.83m47.21 0h-1.66a2.42 2.42 0 1 0 0 4.83h1.66a2.42 2.42 0 1 0 0-4.83m0 7.6h-1.66a2.42 2.42 0 1 0 0 4.83h1.66a2.42 2.42 0 1 0 0-4.84m0 7.6h-8.31a2.42 2.42 0 1 0 0 4.83h8.3a2.42 2.42 0 1 0 0-4.83m-41.62-7.59h-31.4a2.42 2.42 0 0 0 0 4.83h31.4a2.42 2.42 0 1 0 0-4.84m0 7.6h-31.4a2.42 2.42 0 0 0 0 4.83h31.4a2.42 2.42 0 1 0 0-4.83"/><path fill="#fff" stroke="#00A35C" stroke-width="1.24" d="M295.77 334.8H209.8a3.04 3.04 0 0 0-3.04 3.04v46.49a3.04 3.04 0 0 0 3.04 3.04h85.97a3.04 3.04 0 0 0 3.04-3.04v-46.5a3.04 3.04 0 0 0-3.04-3.03Z"/><path stroke="#00A35C" stroke-width="1.24" d="M206.61 352.54h92.31"/><path fill="#00A35C" d="M215.16 347.3q-.5 0-.94-.18a2.2 2.2 0 0 1-1.27-1.39 4 4 0 0 1-.18-1.17q0-.86.32-1.48a2.3 2.3 0 0 1 2.13-1.28q.5 0 .88.2.39.21.64.47l-.52.58a1.3 1.3 0 0 0-1-.43q-.44 0-.78.24t-.52.65-.18 1.03.18 1.04.53.67q.35.23.8.23.32 0 .59-.14.25-.15.48-.39l.52.58q-.31.37-.74.57t-.94.2m3.9 0q-.4 0-.7-.15a1 1 0 0 1-.47-.41 1 1 0 0 1-.17-.61q0-.66.63-1.01a5 5 0 0 1 2.12-.47 1 1 0 0 0-.12-.4 1 1 0 0 0-.3-.27q-.2-.1-.53-.1-.23 0-.45.05-.21.06-.43.16l-.42.2-.34-.62a4 4 0 0 1 1.15-.47q.31-.08.66-.08.56 0 .93.2.39.2.58.59.2.38.2.93v2.36h-.76l-.07-.5h-.03q-.3.25-.7.43a2 2 0 0 1-.79.17m.27-.73q.3 0 .58-.13.29-.14.56-.36v-.84q-.72.04-1.12.16a1 1 0 0 0-.57.28.5.5 0 0 0-.16.38q0 .17.1.29a1 1 0 0 0 .25.17q.16.05.36.05m5.84.73q-.6 0-.96-.22-.35-.21-.51-.6-.15-.37-.16-.88v-1.64h-1.06v-.7l1.1-.04.13-1.25h.77v1.25h1.81v.74h-1.81v1.63q0 .33.09.55.09.2.29.31t.53.1a3 3 0 0 0 .88-.15l.18.67a5 5 0 0 1-1.28.23m4.37 0q-.6 0-1.1-.25t-.79-.71q-.3-.48-.3-1.13a2.03 2.03 0 0 1 2.07-2.09q.59 0 1 .25.4.24.62.67a2 2 0 0 1 .2 1.24l-.02.2h-3.19v-.66h2.59l-.18.2q0-.58-.27-.88a1 1 0 0 0-.73-.3q-.33 0-.6.16-.25.15-.41.46-.15.3-.16.75 0 .46.17.76t.5.45q.3.15.72.15.31 0 .58-.08t.54-.25l.31.59q-.3.2-.7.34-.4.12-.85.13m4.5 1.66q-.54 0-.95-.12-.42-.12-.64-.35a.8.8 0 0 1-.22-.6q0-.22.16-.45.15-.21.47-.38v-.03q-.15-.1-.29-.25a.7.7 0 0 1-.12-.42q0-.2.13-.4t.35-.34v-.03q-.21-.15-.36-.42t-.15-.61q0-.47.23-.78.22-.33.6-.49.38-.17.8-.17.37 0 .63.1h1.63v.71h-.91q.1.12.17.3.09.16.09.36a1.25 1.25 0 0 1-.8 1.2 2 2 0 0 1-1.41.04l-.19.16a.4.4 0 0 0-.05.21q0 .19.18.29.2.08.57.08h.81q.77 0 1.17.23.4.22.4.75 0 .4-.29.71-.27.33-.8.51-.5.2-1.2.19m.02-3.6q.21 0 .38-.1.16-.09.27-.27.1-.18.1-.43t-.1-.42a1 1 0 0 0-.27-.27 1 1 0 0 0-.38-.1.7.7 0 0 0-.65.37 1 1 0 0 0-.1.42q0 .24.1.43.1.17.28.27a1 1 0 0 0 .37.1m.1 2.98q.38 0 .67-.09.3-.1.44-.23.17-.15.17-.32 0-.24-.2-.31a2 2 0 0 0-.6-.08H234a3 3 0 0 1-.6-.06 1 1 0 0 0-.3.26.5.5 0 0 0-.1.26q0 .27.3.42t.85.15m4.85-1.04q-.52 0-.98-.25a2 2 0 0 1-1.02-1.84q0-.67.29-1.12.28-.47.73-.72a2 2 0 0 1 .98-.25 2 2 0 0 1 2 2.1q0 .64-.28 1.12a2 2 0 0 1-1.72.96m0-.77q.32 0 .56-.16a1 1 0 0 0 .36-.46q.12-.3.12-.7t-.12-.7a1 1 0 0 0-.36-.46 1 1 0 0 0-.56-.17q-.32 0-.55.17t-.36.47-.12.7.12.69q.13.3.36.46t.55.16m3.49.67v-3.98h.77l.08.9h.02q.3-.48.74-.74a1.9 1.9 0 0 1 1.72-.1l-.19.79a2 2 0 0 0-.72-.12q-.4 0-.8.23-.38.24-.68.82v2.2zm6.2 0v-3.24h-1.72v-.74h2.66v3.98zm.4-4.71a.7.7 0 0 1-.47-.17.6.6 0 0 1-.19-.45q0-.29.19-.46a.7.7 0 0 1 .48-.18q.3 0 .47.18.2.18.2.46t-.2.45a.7.7 0 0 1-.47.17m4.74 4.8q-.61 0-1.1-.24-.5-.25-.8-.71-.28-.48-.28-1.13a2.03 2.03 0 0 1 2.05-2.09q.6 0 1 .25.41.24.63.67a2 2 0 0 1 .2 1.24q0 .12-.03.2h-3.18v-.66h2.58l-.17.2q0-.58-.27-.88a1 1 0 0 0-.73-.3q-.33 0-.6.16-.26.15-.41.46-.16.3-.16.75 0 .46.17.76t.49.45q.3.15.73.15.3 0 .58-.08t.54-.25l.31.59q-.31.2-.71.34-.4.12-.84.13m4.64 0q-.57 0-1.07-.17a4 4 0 0 1-.89-.44l.4-.6q.37.25.78.38.4.13.9.13.41 0 .6-.14.2-.14.2-.34a.3.3 0 0 0-.04-.18.4.4 0 0 0-.15-.14q-.12-.08-.34-.14l-.56-.14a3 3 0 0 1-1.17-.46.9.9 0 0 1-.37-.74q0-.52.45-.86.46-.33 1.3-.33.49 0 .92.16t.74.37l-.43.57q-.29-.18-.62-.29-.34-.1-.7-.1-.26 0-.42.05t-.24.17a.4.4 0 0 0-.07.21q0 .21.24.32.24.1.8.23.63.14.98.31.36.18.48.4a1 1 0 0 1 .14.54 1 1 0 0 1-.22.63q-.21.27-.62.44t-1.02.17"/><path fill="#E8EDEB" d="M241.68 357.36h-25.82a2.42 2.42 0 0 0 0 4.83h25.82a2.42 2.42 0 1 0 0-4.83m47.2 0h-21.65a2.42 2.42 0 0 0 0 4.83h21.65a2.42 2.42 0 1 0 0-4.83m0 7.59h-17.02a2.42 2.42 0 1 0 0 4.83h17.02a2.42 2.42 0 1 0 0-4.83m0 7.6h-8.31a2.42 2.42 0 0 0 0 4.83h8.3a2.42 2.42 0 1 0 0-4.83m-41.62-7.6h-31.39a2.42 2.42 0 1 0 0 4.83h31.4a2.42 2.42 0 1 0 0-4.83m-2.26 7.6h-29.14a2.42 2.42 0 1 0 0 4.83H245a2.42 2.42 0 0 0 0-4.83"/><path stroke="#00A35C" stroke-linejoin="round" stroke-width="1.24" d="M186.65 293.9h12.18v73.34h7.3"/><path stroke="#00A35C" stroke-width="1.24" d="M312.58 96.38v341.1"/><g filter="url(#a)"><path fill="#fff" d="M93.39 117.56H43.78a21.9 21.9 0 0 0-21.89 21.88v189.9c0 12.09 9.8 21.89 21.89 21.89h49.6c12.1 0 21.9-9.8 21.9-21.9V139.45c0-12.08-9.8-21.88-21.9-21.88"/></g><path fill="#fff" stroke="#00A35C" stroke-width="1.24" d="M103.38 56.62H30.64A22.57 22.57 0 0 0 8.07 79.19v261.27a22.57 22.57 0 0 0 22.57 22.57h72.74a22.57 22.57 0 0 0 22.57-22.57V79.19a22.57 22.57 0 0 0-22.57-22.57Z"/><path fill="#00A35C" d="M22.77 81.4h1.45c.11.89.94 1.32 1.74 1.32.83 0 1.48-.42 1.48-1.11q.01-.9-1.22-1.29l-1.07-.36c-1.39-.44-2.15-1.25-2.15-2.53-.02-1.52 1.15-2.44 2.8-2.44 1.82 0 2.82 1.29 2.9 2.51h-1.44a1.5 1.5 0 0 0-1.5-1.16c-.72 0-1.3.38-1.32 1.01 0 .65.41 1 1.19 1.25l1.09.35c1.37.44 2.17 1.27 2.17 2.6 0 1.5-1.18 2.52-2.91 2.52-1.97 0-3.14-1.29-3.2-2.67m13.51.26a3.1 3.1 0 0 1-3.14 2.38 3.17 3.17 0 0 1-3.24-3.21 3.17 3.17 0 0 1 3.24-3.22c1.63 0 2.8 1.02 3.14 2.39h-1.43a1.75 1.75 0 0 0-1.71-1.15c-1.1 0-1.86.83-1.86 1.98s.76 1.98 1.86 1.98c.85 0 1.46-.49 1.7-1.15zm1.29 2.26v-9.28h1.36v3.94a2.1 2.1 0 0 1 1.88-.97c1.43 0 2.36 1.02 2.36 2.59v3.72H41.8v-3.5c0-.98-.5-1.57-1.29-1.57-.9 0-1.6.7-1.6 2.03v3.04zm13.1-1.94c-.34 1.16-1.46 2.06-3.03 2.06a3.1 3.1 0 0 1-3.16-3.21 3.07 3.07 0 0 1 3.17-3.22c1.9 0 3.22 1.45 3.1 3.55h-4.93c.05.94.77 1.68 1.87 1.68.68 0 1.27-.27 1.56-.86zm-3.05-3.23c-.86 0-1.56.5-1.75 1.45h3.42c-.21-1-.92-1.45-1.67-1.45m4.52 5.17v-6.18h1.36v.84a2 2 0 0 1 1.76-.97 2 2 0 0 1 1.92 1.23 2.2 2.2 0 0 1 1.97-1.23c1.4 0 2.23 1.03 2.23 2.61v3.7h-1.36v-3.48c0-.96-.36-1.6-1.1-1.6-.88 0-1.47.74-1.47 2.04v3.04H56.1v-3.48c0-.96-.36-1.6-1.1-1.6-.88 0-1.49.74-1.49 2.04v3.04zm10.54-3.1c0-1.76 1.28-3.2 2.98-3.2.89 0 1.63.45 1.97.94v-.82H69v6.18h-1.36v-.83c-.34.5-1.08.95-1.97.95-1.7 0-2.98-1.44-2.98-3.21m5.07 0c0-1.1-.75-1.97-1.85-1.97s-1.84.86-1.84 1.98c0 1.11.74 1.98 1.84 1.98s1.85-.87 1.85-1.98m6 3.1v-6.18h1.36v.84c.34-.58.96-.97 1.75-.97.92 0 1.59.46 1.92 1.23a2.2 2.2 0 0 1 1.98-1.23c1.4 0 2.23 1.03 2.23 2.61v3.7h-1.36v-3.48c0-.96-.36-1.6-1.1-1.6-.88 0-1.48.74-1.48 2.04v3.04H77.7v-3.48c0-.96-.36-1.6-1.1-1.6-.88 0-1.48.74-1.48 2.04v3.04zm17.01-3.1a3.2 3.2 0 0 1-3.24 3.22 3.2 3.2 0 0 1-3.24-3.21 3.2 3.2 0 0 1 3.24-3.22 3.2 3.2 0 0 1 3.24 3.22m-5.1 0c0 1.1.76 1.96 1.86 1.96 1.09 0 1.86-.85 1.86-1.95s-.77-1.96-1.86-1.96c-1.1 0-1.87.86-1.87 1.96m6.02 0c0-1.76 1.29-3.2 2.98-3.2.9 0 1.64.45 1.98.94v-3.92H98v9.28h-1.36v-.83c-.34.5-1.09.95-1.98.95-1.69 0-2.98-1.44-2.98-3.21m5.07 0c0-1.1-.74-1.97-1.84-1.97s-1.84.86-1.84 1.98c0 1.11.74 1.98 1.84 1.98s1.84-.87 1.84-1.98m8.86 1.16c-.35 1.16-1.46 2.06-3.03 2.06a3.1 3.1 0 0 1-3.17-3.21 3.07 3.07 0 0 1 3.18-3.22c1.9 0 3.22 1.45 3.1 3.55h-4.93c.05.94.77 1.68 1.87 1.68.68 0 1.27-.27 1.56-.86zm-3.05-3.23c-.86 0-1.56.5-1.75 1.45h3.41c-.2-1-.91-1.45-1.66-1.45m4.52 5.17V74.7h1.36v9.28zM23.69 103.3v-7.02h2.53c1.3 0 2.13.84 2.13 2 0 .98-.59 1.63-1.6 1.86l2.62 3.16h-1.43l-2.57-3.09h-.53v3.09zm1.15-4.1h1.24c.68 0 1.11-.32 1.11-.93 0-.6-.43-.93-1.1-.93h-1.25zm9.52 2.55c-.27.93-1.17 1.65-2.42 1.65a2.47 2.47 0 0 1-2.53-2.57 2.46 2.46 0 0 1 2.54-2.58c1.51 0 2.57 1.16 2.47 2.84h-3.94c.04.75.62 1.35 1.5 1.35.54 0 1.02-.22 1.24-.7zm-2.44-2.59c-.68 0-1.25.4-1.4 1.16h2.73c-.16-.8-.73-1.16-1.33-1.16m3.62 4.14v-7.42h1.09v7.42zm2.2-2.47c0-1.42 1.02-2.58 2.38-2.58.71 0 1.3.37 1.58.77v-.67h1.09v4.95H41.7v-.66c-.28.4-.87.76-1.58.76-1.36 0-2.39-1.16-2.39-2.57m4.05 0c0-.9-.6-1.59-1.47-1.59-.88 0-1.48.7-1.48 1.59s.6 1.58 1.48 1.58 1.47-.7 1.47-1.58m5.43 2.41q-.31.1-.81.1c-.95 0-1.7-.52-1.7-1.63v-2.39h-1v-.97h1.03v-1.37h1.09v1.37h1.41v.97h-1.41v2.2c0 .62.26.85.83.85q.32 0 .58-.1zm2.3-6.7c0 .4-.32.73-.72.73a.74.74 0 0 1-.73-.73.73.73 0 0 1 1.45 0m-1.27 6.76v-4.95h1.1v4.95zm7.38-2.47a2.55 2.55 0 0 1-2.59 2.57 2.55 2.55 0 0 1-2.6-2.57 2.55 2.55 0 0 1 2.6-2.58c1.46 0 2.6 1.14 2.6 2.58m-4.08 0c0 .88.61 1.56 1.49 1.56.87 0 1.48-.68 1.48-1.56s-.6-1.57-1.48-1.57-1.5.69-1.5 1.57m5.18 2.47v-4.95h1.09v.68c.3-.5.86-.78 1.5-.78 1.15 0 1.89.82 1.89 2.07v2.98h-1.09v-2.8c0-.78-.4-1.26-1.03-1.26-.72 0-1.27.57-1.27 1.63v2.43zm5.51-2.47c0-1.42 1.03-2.58 2.39-2.58.71 0 1.3.37 1.58.77v-.67h1.09v4.95H66.2v-.66c-.27.4-.87.76-1.58.76-1.36 0-2.39-1.16-2.39-2.57m4.06 0c0-.9-.6-1.59-1.47-1.59-.88 0-1.48.7-1.48 1.59s.6 1.58 1.48 1.58 1.47-.7 1.47-1.58m2.47 2.47v-7.42h1.1v7.42zM27.2 251.68l-2.36-3.2v5.05H23.7v-7.02h1.06l2.45 3.32 2.46-3.32h1.06v7.02h-1.17v-5.03zm9.84-.62a2.55 2.55 0 0 1-2.59 2.57 2.55 2.55 0 0 1-2.6-2.57 2.55 2.55 0 0 1 2.6-2.57c1.47 0 2.6 1.13 2.6 2.57m-4.08 0c0 .88.61 1.56 1.5 1.56.86 0 1.48-.68 1.48-1.56s-.62-1.56-1.49-1.56c-.88 0-1.5.68-1.5 1.56m5.18 2.47v-4.94h1.09v.67c.3-.5.86-.77 1.5-.77 1.15 0 1.89.8 1.89 2.06v2.98h-1.09v-2.8c0-.78-.4-1.25-1.03-1.25-.72 0-1.27.56-1.27 1.62v2.43zm5.7.39h1.07q.32.86 1.37.85c.74 0 1.34-.5 1.34-1.46v-.58c-.3.44-.9.77-1.58.77-1.34 0-2.37-1.1-2.37-2.51s1.03-2.5 2.37-2.5c.68 0 1.29.32 1.58.76v-.66h1.1v4.64c0 1.72-1.15 2.47-2.47 2.47-1.36 0-2.28-.75-2.4-1.78m3.87-2.93c0-.88-.63-1.51-1.47-1.51s-1.48.63-1.48 1.51.64 1.51 1.48 1.51 1.47-.63 1.47-1.51m7.3.07a2.55 2.55 0 0 1-2.6 2.57 2.55 2.55 0 0 1-2.59-2.57 2.55 2.55 0 0 1 2.6-2.57 2.54 2.54 0 0 1 2.58 2.57m-4.1 0c0 .88.62 1.56 1.5 1.56.87 0 1.49-.68 1.49-1.56s-.62-1.56-1.49-1.56c-.88 0-1.5.68-1.5 1.56m5.26 2.47v-7.02h2.16c2.08 0 3.68 1.52 3.68 3.51s-1.6 3.51-3.68 3.51zm1.16-1.08h1c1.5 0 2.5-1.05 2.5-2.43 0-1.37-1-2.43-2.5-2.43h-1zm5.95 1.08v-7.02h2.42c1.26 0 2.1.89 2.1 1.94 0 .62-.27 1.07-.65 1.35.64.27 1.13.8 1.13 1.67 0 1.17-.93 2.06-2.27 2.06zm1.16-4.06h1.2c.64 0 1.02-.42 1.02-.95 0-.52-.38-.95-1.02-.95h-1.2zm0 3h1.54c.74 0 1.17-.42 1.17-1s-.42-1.01-1.17-1.01h-1.54z"/><path fill="#E8EDEB" d="M97.05 114.64h-42.4a3.12 3.12 0 1 0 0 6.24h42.4a3.12 3.12 0 0 0 0-6.24m0 149.81h-42.4a3.12 3.12 0 0 0 0 6.23h42.4a3.12 3.12 0 1 0 0-6.24m0-108.37h-42.4a3.12 3.12 0 0 0 0 6.23h42.4a3.12 3.12 0 1 0 0-6.23m0 149.8h-42.4a3.12 3.12 0 0 0 0 6.24h42.4a3.12 3.12 0 0 0 0-6.24m0-109.35h-42.4a3.12 3.12 0 0 0 0 6.24h42.4a3.12 3.12 0 1 0 0-6.24m0-69.04h-42.4a3.12 3.12 0 1 0 0 6.23h42.4a3.12 3.12 0 0 0 0-6.23m0 149.8h-42.4a3.12 3.12 0 0 0 0 6.24h42.4a3.12 3.12 0 0 0 0-6.24m0-108.38h-42.4a3.12 3.12 0 0 0 0 6.24h42.4a3.12 3.12 0 0 0 0-6.23m0 149.8h-42.4a3.12 3.12 0 0 0 0 6.24h42.4a3.12 3.12 0 0 0 0-6.24m0-109.35h-42.4a3.12 3.12 0 0 0 0 6.23h42.4a3.12 3.12 0 1 0 0-6.23m0-68.07h-42.4a3.12 3.12 0 0 0 0 6.23h42.4a3.12 3.12 0 0 0 0-6.24m0 149.81h-42.4a3.12 3.12 0 0 0 0 6.24h42.4a3.12 3.12 0 0 0 0-6.24m0-108.37h-42.4a3.12 3.12 0 0 0 0 6.23h42.4a3.12 3.12 0 0 0 0-6.23m0 149.8h-42.4a3.12 3.12 0 1 0 0 6.23h42.4a3.12 3.12 0 0 0 0-6.23m0-109.35h-42.4a3.12 3.12 0 0 0 0 6.23h42.4a3.12 3.12 0 0 0 0-6.23"/><path stroke="#C1C7C6" stroke-width="1.02" d="M42.93 114.18h-8.58v7.15h8.58z"/><path stroke="#C1C7C6" stroke-linejoin="round" stroke-width="1.02" d="M38.54 113.94v7.36m4.43-3.54H34.8"/><path stroke="#C1C7C6" stroke-width="1.02" d="M42.93 155.6h-8.58v7.16h8.58z"/><path stroke="#C1C7C6" stroke-linejoin="round" stroke-width="1.02" d="M38.54 155.36v7.36m4.43-3.54H34.8"/><path stroke="#C1C7C6" stroke-width="1.02" d="M42.93 196.06h-8.58v7.16h8.58z"/><path stroke="#C1C7C6" stroke-linejoin="round" stroke-width="1.02" d="M38.54 195.82v7.36m4.43-3.54H34.8"/><path stroke="#C1C7C6" stroke-width="1.02" d="M42.93 127.02h-8.58v7.15h8.58z"/><path stroke="#C1C7C6" stroke-linejoin="round" stroke-width="1.02" d="M38.54 126.78v7.36m4.43-3.54H34.8"/><path stroke="#C1C7C6" stroke-width="1.02" d="M42.93 168.45h-8.58v7.15h8.58z"/><path stroke="#C1C7C6" stroke-linejoin="round" stroke-width="1.02" d="M38.54 168.2v7.37m4.43-3.55H34.8"/><path stroke="#C1C7C6" stroke-width="1.02" d="M42.93 208.9h-8.58v7.15h8.58z"/><path stroke="#C1C7C6" stroke-linejoin="round" stroke-width="1.02" d="M38.54 208.66v7.36m4.43-3.54H34.8"/><path stroke="#C1C7C6" stroke-width="1.02" d="M42.93 140.83h-8.58v7.15h8.58z"/><path stroke="#C1C7C6" stroke-linejoin="round" stroke-width="1.02" d="M38.54 140.59v7.36m4.43-3.55H34.8"/><path stroke="#C1C7C6" stroke-width="1.02" d="M42.93 182.25h-8.58v7.16h8.58z"/><path stroke="#C1C7C6" stroke-linejoin="round" stroke-width="1.02" d="M38.54 182.01v7.36m4.43-3.54H34.8"/><path stroke="#C1C7C6" stroke-width="1.02" d="M42.93 222.71h-8.58v7.16h8.58z"/><path stroke="#C1C7C6" stroke-linejoin="round" stroke-width="1.02" d="M38.54 222.47v7.36m4.43-3.54H34.8"/><path fill="#C1C7C6" d="M34.5 263.65c-.37 0-.66.3-.66.65v6.52c0 .36.3.65.65.65h7.82c.36 0 .66-.29.66-.65v-5.21c0-.36-.3-.66-.66-.66h-3.9a.65.65 0 0 1-.66-.65c0-.36-.3-.65-.65-.65zm0 12.05a.65.65 0 0 0-.66.65v6.51c0 .37.3.66.65.66h7.82c.36 0 .66-.3.66-.65v-5.22c0-.36-.3-.65-.66-.65h-3.9a.65.65 0 0 1-.66-.65c0-.36-.3-.66-.65-.66zm0 13.8c-.37 0-.66.3-.66.66v6.51c0 .36.3.66.65.66h7.82c.36 0 .66-.3.66-.66v-5.21c0-.36-.3-.65-.66-.65h-3.9a.65.65 0 0 1-.66-.65c0-.36-.3-.66-.65-.66zm0 14.79a.65.65 0 0 0-.66.65v6.51c0 .37.3.66.65.66h7.82c.36 0 .66-.3.66-.66v-5.2c0-.37-.3-.66-.66-.66h-3.9a.65.65 0 0 1-.66-.65c0-.36-.3-.65-.65-.65zm0 12.83c-.37 0-.66.3-.66.65v6.52c0 .36.3.65.65.65h7.82c.36 0 .66-.29.66-.65v-5.21c0-.36-.3-.65-.66-.65h-3.9a.65.65 0 0 1-.66-.66c0-.36-.3-.65-.65-.65zm0 13.81c-.37 0-.66.3-.66.65v6.52c0 .36.3.65.65.65h7.82c.36 0 .66-.29.66-.65v-5.22c0-.36-.3-.65-.66-.65h-3.9a.65.65 0 0 1-.66-.65c0-.36-.3-.65-.65-.65z"/><g filter="url(#b)"><path fill="#fff" d="M627.45 276.38H509.12a21.9 21.9 0 0 0-21.89 21.9v189.89c0 12.09 9.8 21.89 21.89 21.89h118.33c12.1 0 21.9-9.8 21.9-21.9V298.28a21.9 21.9 0 0 0-21.9-21.89"/></g><path fill="#fff" stroke="#00A35C" stroke-width="1.24" d="M641.92 155.55H498.1a22.57 22.57 0 0 0-22.57 22.57v317.4a22.57 22.57 0 0 0 22.57 22.57h143.82a22.57 22.57 0 0 0 22.57-22.57v-317.4a22.57 22.57 0 0 0-22.57-22.57Z"/><path stroke="#D9D9D9" stroke-width="1.24" d="M643.62 241.5H496.4a5.56 5.56 0 0 0-5.56 5.56v11.73a5.56 5.56 0 0 0 5.56 5.56h147.22a5.56 5.56 0 0 0 5.57-5.56v-11.73c0-3.08-2.5-5.57-5.57-5.57Z"/><path fill="#00A35C" d="M491.98 203.53v-5.92h-2.04v-1.1h5.25v1.1h-2.05v5.92zm4.97 2.07h-1.2l1.06-2.34-2.13-4.68h1.2l1.52 3.5 1.52-3.5h1.2zm3.93 0v-7.02h1.09v.66a2 2 0 0 1 1.6-.76c1.35 0 2.38 1.16 2.38 2.58 0 1.4-1.03 2.57-2.39 2.57a2 2 0 0 1-1.6-.76v2.73zm3.96-4.54c0-.9-.6-1.59-1.48-1.59s-1.48.7-1.48 1.59c0 .88.6 1.58 1.48 1.58s1.48-.7 1.48-1.58m6.83.91c-.28.94-1.17 1.66-2.43 1.66a2.47 2.47 0 0 1-2.53-2.57 2.46 2.46 0 0 1 2.54-2.58c1.51 0 2.57 1.16 2.47 2.84h-3.93c.04.75.61 1.35 1.5 1.35.53 0 1.01-.22 1.24-.7zm-2.45-2.58c-.68 0-1.25.4-1.4 1.16h2.74c-.17-.8-.74-1.16-1.34-1.16m5.16-.07c0 .48-.38.86-.86.86a.86.86 0 0 1 0-1.72c.48 0 .87.4.87.86m0 3.43c0 .47-.38.86-.86.86a.86.86 0 0 1 0-1.72c.48 0 .87.4.87.86m-17.66 28.66h-1.01l-3.96-5.05v5.05h-1.16v-7.02h1.01l3.95 5.03v-5.03h1.17zm1.14-2.47c0-1.42 1.02-2.57 2.38-2.57.71 0 1.3.36 1.58.76v-.67h1.1v4.95h-1.1v-.66c-.27.4-.87.76-1.58.76-1.36 0-2.38-1.16-2.38-2.57m4.05 0c0-.9-.6-1.59-1.47-1.59-.88 0-1.47.7-1.47 1.59s.59 1.58 1.47 1.58 1.47-.7 1.47-1.58m2.48 2.47v-4.95h1.08v.68c.28-.47.78-.77 1.41-.77.73 0 1.27.36 1.53.97.3-.63.93-.97 1.59-.97 1.11 0 1.78.82 1.78 2.08v2.96h-1.1v-2.78c0-.77-.28-1.28-.87-1.28-.7 0-1.18.59-1.18 1.63v2.43h-1.09v-2.78c0-.77-.29-1.28-.88-1.28-.7 0-1.19.59-1.19 1.63v2.43zm13.39-1.55c-.28.93-1.17 1.65-2.42 1.65a2.47 2.47 0 0 1-2.54-2.57 2.46 2.46 0 0 1 2.54-2.57c1.52 0 2.58 1.15 2.48 2.84h-3.94c.04.75.61 1.34 1.5 1.34.54 0 1.01-.22 1.24-.7zm-2.44-2.58c-.69 0-1.25.4-1.4 1.15h2.73c-.17-.8-.73-1.15-1.34-1.15m-21.21 58.58-2.37-3.2v5.05h-1.16v-7.03h1.06l2.45 3.33 2.47-3.33h1.06v7.03h-1.17v-5.04zm4.65-.63c0-1.41 1.02-2.57 2.38-2.57a2 2 0 0 1 1.58.76v-.66h1.09v4.95h-1.09v-.67c-.27.4-.87.76-1.58.76-1.36 0-2.38-1.15-2.38-2.57m4.05 0c0-.89-.6-1.58-1.47-1.58-.88 0-1.48.7-1.48 1.58 0 .9.6 1.59 1.48 1.59s1.47-.7 1.47-1.59m2.48 4.54v-7.01h1.08v.66a2 2 0 0 1 1.6-.76c1.35 0 2.38 1.16 2.38 2.57 0 1.42-1.03 2.57-2.38 2.57a2 2 0 0 1-1.6-.76v2.73zm3.95-4.54c0-.89-.6-1.58-1.47-1.58-.88 0-1.49.7-1.49 1.58 0 .9.6 1.59 1.49 1.59.87 0 1.47-.7 1.47-1.59m2.22 4.54v-7.01h1.09v.66a2 2 0 0 1 1.59-.76c1.36 0 2.38 1.16 2.38 2.57 0 1.42-1.02 2.57-2.38 2.57a2 2 0 0 1-1.6-.76v2.73zm3.96-4.54c0-.89-.6-1.58-1.48-1.58s-1.48.7-1.48 1.58c0 .9.6 1.59 1.48 1.59.87 0 1.48-.7 1.48-1.59m3.48-4.28c0 .4-.32.73-.72.73a.74.74 0 0 1-.74-.73c0-.4.34-.72.74-.72s.72.32.72.72m-1.27 6.76v-4.95h1.09v4.95zm2.55 0v-4.95h1.1v.67c.29-.5.85-.77 1.5-.77 1.14 0 1.88.81 1.88 2.07v2.98h-1.08v-2.8c0-.79-.4-1.26-1.03-1.26-.73 0-1.28.56-1.28 1.62v2.44zm5.7.38H527q.31.87 1.36.85c.74 0 1.35-.5 1.35-1.45v-.59c-.3.44-.9.78-1.59.78-1.33 0-2.37-1.11-2.37-2.52 0-1.4 1.04-2.5 2.38-2.5.68 0 1.28.33 1.58.76v-.66h1.09v4.64c0 1.72-1.14 2.47-2.47 2.47-1.35 0-2.27-.75-2.4-1.78m3.88-2.93c0-.88-.64-1.51-1.48-1.51s-1.47.63-1.47 1.51.63 1.52 1.47 1.52 1.48-.64 1.48-1.52m5.18 2.55v-3.98h-1.03v-.97h1.03v-.83c0-1.11.74-1.7 1.69-1.7q.5 0 .81.12v.96c-.16-.05-.38-.1-.58-.1-.57 0-.84.23-.84.85v.7h1.42v.97h-1.42v3.98zm3.37 0v-4.95h1.09v.88a1.4 1.4 0 0 1 1.3-.93q.2 0 .43.04v1.12a2 2 0 0 0-.55-.1c-.62 0-1.18.53-1.18 1.52v2.42zm8.41-2.48a2.55 2.55 0 0 1-2.6 2.57 2.55 2.55 0 0 1-2.58-2.57 2.55 2.55 0 0 1 2.59-2.57 2.55 2.55 0 0 1 2.59 2.57m-4.09 0c0 .88.62 1.57 1.5 1.57.87 0 1.48-.69 1.48-1.57s-.61-1.56-1.48-1.56c-.88 0-1.5.68-1.5 1.56m5.19 2.48v-4.95h1.08v.67a1.6 1.6 0 0 1 1.4-.77c.74 0 1.27.37 1.54.98.3-.63.93-.98 1.58-.98 1.12 0 1.78.82 1.78 2.09v2.96h-1.08v-2.78c0-.78-.29-1.28-.88-1.28-.7 0-1.18.58-1.18 1.62v2.44H551v-2.78c0-.78-.29-1.28-.88-1.28-.7 0-1.19.58-1.19 1.62v2.44zm11.1 0v-4.95h1.1v.88a1.4 1.4 0 0 1 1.3-.93q.21 0 .42.04v1.12a2 2 0 0 0-.54-.1c-.62 0-1.19.53-1.19 1.52v2.42zm8.2-1.56c-.28.93-1.17 1.66-2.42 1.66a2.47 2.47 0 0 1-2.54-2.58 2.46 2.46 0 0 1 2.55-2.57c1.51 0 2.57 1.16 2.47 2.84h-3.94c.04.75.62 1.35 1.5 1.35.54 0 1.01-.22 1.24-.7zm-2.44-2.58c-.69 0-1.25.4-1.4 1.16h2.73c-.17-.8-.73-1.16-1.33-1.16m3.62 4.14v-7.42h1.08v7.42zm2.2-2.48c0-1.41 1.02-2.57 2.38-2.57a2 2 0 0 1 1.58.76v-.66h1.09v4.95h-1.1v-.67c-.27.4-.86.76-1.57.76-1.36 0-2.39-1.15-2.39-2.57m4.05 0c0-.89-.6-1.58-1.48-1.58s-1.47.7-1.47 1.58c0 .9.6 1.59 1.47 1.59.88 0 1.48-.7 1.48-1.59m5.43 2.42q-.32.1-.81.1c-.95 0-1.7-.52-1.7-1.64v-2.38h-1.02v-.97h1.03v-1.38h1.09v1.38H580v.97h-1.41v2.2c0 .62.26.85.83.85q.32 0 .58-.1zm2.3-6.7c0 .4-.32.73-.72.73a.74.74 0 0 1-.74-.73c0-.4.34-.72.74-.72s.72.32.72.72m-1.27 6.76v-4.95h1.09v4.95zm7.38-2.48a2.55 2.55 0 0 1-2.6 2.57 2.55 2.55 0 0 1-2.58-2.57 2.55 2.55 0 0 1 2.59-2.57 2.55 2.55 0 0 1 2.59 2.57m-4.09 0c0 .88.62 1.57 1.5 1.57.87 0 1.48-.69 1.48-1.57s-.61-1.56-1.48-1.56c-.88 0-1.5.68-1.5 1.56m5.18 2.48v-4.95h1.1v.67c.29-.5.85-.77 1.5-.77 1.14 0 1.89.81 1.89 2.07v2.98h-1.1v-2.8c0-.79-.39-1.26-1.02-1.26-.72 0-1.28.56-1.28 1.62v2.44zm5.52-2.48c0-1.41 1.03-2.57 2.39-2.57a2 2 0 0 1 1.58.76v-.66h1.09v4.95H599v-.67c-.28.4-.87.76-1.58.76-1.36 0-2.39-1.15-2.39-2.57m4.06 0c0-.89-.6-1.58-1.48-1.58s-1.47.7-1.47 1.58c0 .9.6 1.59 1.48 1.59s1.47-.7 1.47-1.59m2.47 2.48v-7.42h1.1v7.42zm7.68-.06q-.32.1-.82.1c-.94 0-1.69-.52-1.69-1.64v-2.38h-1.03v-.97h1.03v-1.38h1.1v1.38h1.4v.97h-1.4v2.2c0 .62.26.85.82.85q.33 0 .59-.1zm.6-2.42c0-1.41 1.03-2.57 2.39-2.57a2 2 0 0 1 1.58.76v-.66h1.09v4.95h-1.09v-.67c-.28.4-.87.76-1.58.76-1.36 0-2.39-1.15-2.39-2.57m4.06 0c0-.89-.6-1.58-1.47-1.58-.88 0-1.48.7-1.48 1.58 0 .9.6 1.59 1.48 1.59s1.47-.7 1.47-1.59m3.56 1.81v.67h-1.09v-7.42h1.1v3.13a2 2 0 0 1 1.58-.76c1.36 0 2.39 1.16 2.39 2.57 0 1.42-1.03 2.57-2.39 2.57a2 2 0 0 1-1.59-.76m2.87-1.8c0-.9-.6-1.59-1.47-1.59-.88 0-1.49.7-1.49 1.58 0 .9.6 1.59 1.49 1.59.87 0 1.47-.7 1.47-1.59m2.22 2.47v-7.42h1.09v7.42zm7.16-1.56c-.28.93-1.17 1.66-2.43 1.66a2.47 2.47 0 0 1-2.53-2.58 2.46 2.46 0 0 1 2.54-2.57c1.52 0 2.58 1.16 2.48 2.84h-3.94c.04.75.61 1.35 1.5 1.35.54 0 1.01-.22 1.24-.7zm-2.45-2.58c-.68 0-1.24.4-1.39 1.16h2.73c-.17-.8-.73-1.16-1.34-1.16m7.3 2.77c0 .96-.82 1.47-1.93 1.47-1.16 0-2.06-.62-2.12-1.6h1.13c.09.53.53.73 1.02.73.47 0 .8-.2.8-.53 0-.34-.22-.52-.73-.65l-.82-.22c-.85-.22-1.26-.77-1.26-1.5 0-.83.73-1.38 1.84-1.38 1.07 0 1.8.6 1.89 1.48h-1.1c-.09-.41-.42-.6-.8-.6-.42 0-.72.18-.72.5q.01.44.66.59l.83.22q1.33.35 1.32 1.5m-139.34-105.8-2.96-4v6.31h-1.44v-8.78h1.32l3.07 4.16 3.08-4.16h1.32v8.78h-1.46v-6.3zm12.3-.78a3.2 3.2 0 0 1-3.25 3.22 3.2 3.2 0 0 1-3.24-3.22 3.2 3.2 0 0 1 3.24-3.21 3.2 3.2 0 0 1 3.24 3.21m-5.11 0c0 1.1.76 1.96 1.86 1.96s1.86-.86 1.86-1.96-.77-1.95-1.86-1.95c-1.1 0-1.86.85-1.86 1.95m6.47 3.1v-6.19h1.36v.84a2.1 2.1 0 0 1 1.88-.96c1.44 0 2.36 1.01 2.36 2.58v3.72h-1.36v-3.5c0-.97-.5-1.57-1.28-1.57-.9 0-1.6.7-1.6 2.03v3.04zm7.13.48h1.34q.4 1.08 1.7 1.06c.93 0 1.69-.62 1.69-1.82v-.73c-.37.55-1.13.97-1.98.97-1.67 0-2.97-1.39-2.97-3.14s1.3-3.13 2.97-3.13c.85 0 1.6.4 1.98.95v-.83h1.36v5.8c0 2.15-1.42 3.1-3.08 3.1-1.7 0-2.85-.95-3-2.23m4.84-3.66c0-1.1-.8-1.9-1.84-1.9-1.05 0-1.85.8-1.85 1.9s.8 1.89 1.85 1.89 1.84-.8 1.84-1.9m9.11.08a3.2 3.2 0 0 1-3.24 3.22 3.2 3.2 0 0 1-3.24-3.22 3.2 3.2 0 0 1 3.24-3.21 3.2 3.2 0 0 1 3.24 3.21m-5.1 0c0 1.1.76 1.96 1.86 1.96s1.86-.86 1.86-1.96-.77-1.95-1.86-1.95c-1.1 0-1.86.85-1.86 1.95m6.56 3.1v-8.79h2.7c2.6 0 4.6 1.9 4.6 4.4 0 2.48-2 4.38-4.6 4.38zm1.45-1.35h1.25c1.88 0 3.13-1.33 3.13-3.05s-1.25-3.04-3.13-3.04h-1.25zm7.44 1.34v-8.78h3.03c1.57 0 2.62 1.12 2.62 2.43 0 .78-.33 1.33-.82 1.7.8.33 1.41 1 1.41 2.08 0 1.46-1.16 2.57-2.83 2.57zm1.45-5.08h1.5c.8 0 1.28-.52 1.28-1.19 0-.64-.48-1.18-1.27-1.18h-1.51zm0 3.76h1.93c.92 0 1.45-.53 1.45-1.26 0-.72-.51-1.26-1.45-1.26h-1.93zm15.04-.94a3.1 3.1 0 0 1-3.14 2.39 3.17 3.17 0 0 1-3.25-3.22 3.17 3.17 0 0 1 3.25-3.21c1.63 0 2.8 1.01 3.14 2.38h-1.44a1.75 1.75 0 0 0-1.7-1.15c-1.1 0-1.86.83-1.86 1.98s.76 1.98 1.86 1.98c.85 0 1.46-.48 1.7-1.15zm7.32-.83a3.2 3.2 0 0 1-3.24 3.22 3.2 3.2 0 0 1-3.24-3.22 3.2 3.2 0 0 1 3.24-3.21 3.2 3.2 0 0 1 3.24 3.21m-5.11 0c0 1.1.77 1.96 1.87 1.96 1.09 0 1.85-.86 1.85-1.96s-.76-1.95-1.85-1.95c-1.1 0-1.87.85-1.87 1.95m6.48 3.1v-9.28h1.36v9.27zm3.18 0v-9.28h1.36v9.27zm8.96-1.95c-.35 1.16-1.46 2.07-3.03 2.07a3.1 3.1 0 0 1-3.17-3.22 3.07 3.07 0 0 1 3.18-3.21c1.89 0 3.21 1.44 3.09 3.55h-4.92c.05.94.76 1.68 1.87 1.68.68 0 1.27-.27 1.55-.87zm-3.06-3.23c-.85 0-1.56.5-1.74 1.45h3.41c-.21-1-.91-1.45-1.67-1.45m10.46 2.91a3.1 3.1 0 0 1-3.14 2.39 3.17 3.17 0 0 1-3.24-3.22 3.17 3.17 0 0 1 3.24-3.21c1.63 0 2.8 1.01 3.14 2.38h-1.43a1.75 1.75 0 0 0-1.7-1.15c-1.1 0-1.86.83-1.86 1.98s.75 1.98 1.85 1.98c.86 0 1.46-.48 1.7-1.15zm4.91 2.19q-.4.14-1.01.14c-1.19 0-2.12-.66-2.12-2.06v-2.98h-1.28v-1.21h1.29v-1.72h1.35v1.72h1.77v1.21h-1.77v2.76c0 .77.34 1.05 1.04 1.05.26 0 .54-.05.73-.12zm2.88-8.37c0 .5-.4.91-.9.91s-.92-.4-.92-.91c0-.5.42-.9.91-.9.51 0 .9.4.9.9m-1.59 8.44v-6.18h1.36v6.18zm9.23-3.09a3.2 3.2 0 0 1-3.24 3.22 3.2 3.2 0 0 1-3.24-3.22 3.2 3.2 0 0 1 3.24-3.21 3.2 3.2 0 0 1 3.24 3.21m-5.11 0c0 1.1.77 1.96 1.87 1.96 1.09 0 1.85-.86 1.85-1.96s-.76-1.95-1.85-1.95c-1.1 0-1.87.85-1.87 1.95m6.48 3.1v-6.19h1.36v.84a2.1 2.1 0 0 1 1.88-.96c1.43 0 2.36 1.01 2.36 2.58v3.72h-1.36v-3.5c0-.97-.5-1.57-1.29-1.57-.9 0-1.6.7-1.6 2.03v3.04z"/><path fill="#000" d="M506.57 252.99c0 1.78-1.4 3.18-3.17 3.18a3.15 3.15 0 0 1-3.18-3.18 3.15 3.15 0 0 1 3.18-3.18c1.77 0 3.17 1.4 3.17 3.18m-5.54 0a2.36 2.36 0 0 0 2.37 2.41 2.36 2.36 0 0 0 2.37-2.41 2.36 2.36 0 0 0-2.37-2.42 2.36 2.36 0 0 0-2.37 2.42m6.64 3.07v-4.33h.74v.84c.17-.55.71-.88 1.21-.88q.16 0 .34.03v.78a1 1 0 0 0-.4-.07c-.55 0-1.15.47-1.15 1.49v2.14zm2.68-2.16c0-1.24.91-2.25 2.13-2.25.64 0 1.23.34 1.52.75v-2.83h.74v6.5H514v-.67a1.9 1.9 0 0 1-1.52.75c-1.22 0-2.13-1.01-2.13-2.25m3.7 0c0-.88-.59-1.57-1.46-1.57-.88 0-1.48.7-1.48 1.57s.6 1.56 1.48 1.56c.87 0 1.47-.69 1.47-1.56m5.96.85c-.21.76-.92 1.4-2.02 1.4-1.27 0-2.18-.96-2.18-2.25 0-1.27.85-2.25 2.2-2.25 1.36 0 2.18 1.1 2.07 2.45h-3.52c.03.78.66 1.37 1.44 1.37.53 0 1-.2 1.25-.72zm-2.03-2.44c-.62 0-1.24.34-1.38 1.2h2.7c-.14-.8-.68-1.2-1.32-1.2m3.18 3.75v-4.33h.74v.84a1.3 1.3 0 0 1 1.21-.88q.17 0 .34.03v.78a1 1 0 0 0-.4-.07c-.55 0-1.15.47-1.15 1.49v2.14zm6.08-1.17c0 .86-.7 1.26-1.6 1.26-.92 0-1.7-.47-1.75-1.34h.76c.1.53.55.7 1 .7.47 0 .84-.18.84-.56 0-.35-.21-.56-.72-.7l-.63-.16c-.74-.2-1.11-.66-1.11-1.27 0-.72.62-1.17 1.5-1.17.92 0 1.5.54 1.57 1.23h-.75a.8.8 0 0 0-.83-.6c-.41 0-.74.2-.74.53q-.01.46.66.62l.69.18q1.09.29 1.1 1.28m-6.99-51.13v-6.14h2.1c1.13 0 1.83.68 1.83 1.7 0 .9-.57 1.5-1.52 1.64l2.37 2.8H524l-2.36-2.8h-.6v2.8zm.8-3.51h1.2c.7 0 1.12-.32 1.12-.94s-.42-.95-1.12-.95h-1.2zm8.32 2.2c-.22.76-.92 1.4-2.02 1.4a2.15 2.15 0 0 1-2.19-2.25c0-1.26.85-2.25 2.2-2.25 1.36 0 2.18 1.1 2.08 2.45h-3.52c.02.79.66 1.38 1.43 1.38.54 0 1-.21 1.26-.73zm-2.03-2.44c-.63 0-1.24.34-1.39 1.2h2.7c-.14-.8-.67-1.2-1.31-1.2m2.98 4.15h.73q.32.85 1.39.84c.78 0 1.36-.52 1.36-1.5v-.5c-.29.43-.86.75-1.5.75-1.2 0-2.12-.97-2.12-2.2s.92-2.2 2.12-2.2c.64 0 1.21.32 1.5.75v-.66h.75v4.06c0 1.44-.95 2.16-2.13 2.16-1.16 0-1.97-.62-2.1-1.5m3.54-2.61c0-.87-.6-1.52-1.46-1.52s-1.46.65-1.46 1.52.6 1.51 1.46 1.51c.87 0 1.47-.64 1.47-1.51m2.03.54v-2.66h.75v2.55c0 .73.38 1.19.97 1.19.68 0 1.2-.6 1.2-1.59v-2.15h.75v4.33h-.74v-.66c-.29.5-.8.75-1.34.75-.95 0-1.59-.68-1.59-1.76m5.07 1.67v-6.49h.75v6.5zm1.82-2.16c0-1.24.91-2.25 2.12-2.25.65 0 1.24.34 1.53.75v-.66h.74v4.32h-.74v-.66a1.9 1.9 0 0 1-1.53.75c-1.2 0-2.12-1.01-2.12-2.25m3.7 0c0-.87-.59-1.57-1.47-1.57-.87 0-1.48.7-1.48 1.57s.61 1.57 1.49 1.57c.87 0 1.47-.7 1.47-1.57m2.1 2.16v-4.32h.74v.84c.17-.56.7-.89 1.2-.89q.18 0 .35.04v.77a1 1 0 0 0-.41-.07c-.55 0-1.14.47-1.14 1.49v2.14zm4.73-3.07c0-1.8 1.38-3.18 3.18-3.18a2.96 2.96 0 0 1 2.95 2.13h-.85a2.2 2.2 0 0 0-2.1-1.36 2.35 2.35 0 0 0-2.38 2.41 2.35 2.35 0 0 0 2.38 2.42c1.02 0 1.83-.6 2.1-1.37h.85a2.95 2.95 0 0 1-2.95 2.13 3.13 3.13 0 0 1-3.18-3.18m11.3.9c0 1.26-.96 2.26-2.25 2.26-1.31 0-2.27-1-2.27-2.25s.96-2.25 2.26-2.25 2.26 1 2.26 2.25m-3.76 0c0 .88.6 1.57 1.5 1.57s1.5-.7 1.5-1.56-.6-1.56-1.5-1.56-1.5.7-1.5 1.56m4.83 2.17v-6.49h.75v6.5zm2.16 0v-6.49h.74v6.5zm6.02-1.31c-.21.76-.92 1.4-2.02 1.4-1.27 0-2.18-.96-2.18-2.25 0-1.26.85-2.25 2.2-2.25 1.36 0 2.18 1.1 2.07 2.45h-3.52c.03.79.66 1.38 1.44 1.38.53 0 1-.21 1.25-.73zm-2.03-2.44c-.62 0-1.24.34-1.39 1.2h2.7c-.13-.8-.67-1.2-1.31-1.2m7.28 2.23a2.2 2.2 0 0 1-2.18 1.61 2.2 2.2 0 0 1-2.26-2.25c0-1.24.94-2.25 2.26-2.25 1.09 0 1.94.67 2.18 1.6h-.8a1.4 1.4 0 0 0-1.38-.92c-.9 0-1.5.7-1.5 1.57s.6 1.57 1.5 1.57c.67 0 1.2-.38 1.38-.93zm3.29 1.46q-.27.1-.67.1c-.75 0-1.32-.42-1.32-1.32v-2.36h-.92v-.69h.92v-1.2h.74v1.2h1.25v.69h-1.25v2.27c0 .55.25.73.72.73.18 0 .4-.03.53-.08zm1.85-5.95c0 .3-.22.53-.52.53a.53.53 0 0 1-.53-.53c0-.29.24-.53.53-.53s.52.24.52.53m-.9 6.01v-4.32h.75v4.32zm6.34-2.16c0 1.25-.96 2.25-2.26 2.25s-2.27-1-2.27-2.25.96-2.25 2.27-2.25c1.3 0 2.26 1 2.26 2.25m-3.77 0c0 .87.6 1.56 1.5 1.56s1.5-.7 1.5-1.56-.6-1.56-1.5-1.56-1.5.7-1.5 1.56m4.84 2.16v-4.32h.74v.66c.3-.5.82-.75 1.38-.75.97 0 1.63.67 1.63 1.75v2.66h-.73v-2.55c0-.73-.42-1.18-1.02-1.18-.7 0-1.26.57-1.26 1.59v2.14z"/><path fill="#00A35C" d="M520.58 316.52a3.6 3.6 0 0 1-3.63 3.63 3.6 3.6 0 0 1-3.63-3.63 3.6 3.6 0 0 1 3.63-3.63c2 0 3.63 1.6 3.63 3.63m-6.1 0a2.46 2.46 0 1 0 4.92 0 2.46 2.46 0 1 0-4.92 0m7.21 3.51v-4.94h1.09v.88a1.4 1.4 0 0 1 1.3-.93q.2-.01.43.04v1.12a2 2 0 0 0-.54-.1c-.63 0-1.2.53-1.2 1.52v2.41zm3.24-2.47c0-1.42 1.03-2.57 2.38-2.57a2 2 0 0 1 1.59.76v-3.14h1.08v7.42h-1.09v-.66c-.27.4-.87.76-1.58.76-1.35 0-2.38-1.15-2.38-2.57m4.05 0c0-.9-.59-1.58-1.47-1.58s-1.47.69-1.47 1.58.59 1.58 1.47 1.58 1.47-.69 1.47-1.58m7.09.92c-.28.93-1.17 1.65-2.43 1.65a2.47 2.47 0 0 1-2.53-2.57 2.46 2.46 0 0 1 2.54-2.57c1.52 0 2.58 1.15 2.48 2.84h-3.94c.04.75.61 1.34 1.5 1.34.54 0 1.01-.22 1.24-.69zm-2.45-2.58c-.68 0-1.24.4-1.4 1.16h2.74c-.17-.8-.73-1.16-1.34-1.16m3.63 4.13v-4.94h1.08v.88a1.4 1.4 0 0 1 1.3-.93q.22-.01.44.04v1.12a2 2 0 0 0-.55-.1c-.62 0-1.19.53-1.19 1.52v2.41zm7.35-1.36c0 .96-.83 1.46-1.94 1.46-1.16 0-2.06-.61-2.12-1.6h1.13c.09.53.53.73 1.02.73.47 0 .8-.19.8-.52 0-.34-.22-.53-.73-.66l-.81-.21c-.86-.22-1.27-.77-1.27-1.5 0-.83.73-1.38 1.84-1.38 1.07 0 1.81.6 1.89 1.48h-1.09c-.1-.41-.43-.61-.81-.61-.42 0-.72.19-.72.5 0 .32.24.49.66.6l.83.21q1.33.36 1.32 1.5"/><path fill="#000" d="M505.64 334.4h-.7l-3.73-4.78v4.78h-.8v-6.14h.7l3.73 4.78v-4.78h.8zm5.32-1.31c-.22.76-.93 1.4-2.03 1.4-1.26 0-2.18-.96-2.18-2.25 0-1.27.85-2.25 2.2-2.25 1.36 0 2.18 1.1 2.07 2.45h-3.52c.03.79.66 1.37 1.44 1.37.54 0 1-.2 1.25-.72zm-2.04-2.44c-.62 0-1.24.34-1.38 1.2h2.7c-.14-.8-.68-1.2-1.32-1.2m6.83 3.75-1.06-3.11-1.08 3.11h-.65l-1.48-4.33h.78l1.05 3.16 1.08-3.16h.58l1.08 3.16 1.05-3.16h.78l-1.47 4.33zm4.53-2.16c0-1.24.91-2.25 2.12-2.25.65 0 1.24.33 1.53.75v-2.83h.74v6.5h-.74v-.67a1.9 1.9 0 0 1-1.53.75c-1.2 0-2.12-1.01-2.12-2.25m3.7 0c0-.88-.59-1.57-1.46-1.57-.88 0-1.48.7-1.48 1.57s.6 1.56 1.48 1.56c.87 0 1.47-.69 1.47-1.56m6.27 0c0 1.25-.96 2.25-2.25 2.25-1.31 0-2.27-1-2.27-2.25s.96-2.25 2.27-2.25c1.3 0 2.25 1 2.25 2.25m-3.76 0c0 .86.6 1.56 1.5 1.56s1.5-.7 1.5-1.56-.6-1.56-1.5-1.56-1.5.7-1.5 1.56m8.94.64a2.2 2.2 0 0 1-2.18 1.6 2.2 2.2 0 0 1-2.26-2.24c0-1.24.94-2.25 2.25-2.25 1.1 0 1.94.67 2.19 1.6h-.8a1.4 1.4 0 0 0-1.38-.92c-.9 0-1.51.7-1.51 1.57s.6 1.56 1.5 1.56c.68 0 1.2-.38 1.4-.92zm.92-.15v-2.66h.75v2.55c0 .73.38 1.19.98 1.19.67 0 1.2-.6 1.2-1.59v-2.15h.74v4.33h-.74v-.66c-.29.5-.79.75-1.33.75-.96 0-1.6-.69-1.6-1.76m5.08 1.67v-4.33h.74v.67c.25-.46.73-.75 1.3-.75.66 0 1.12.35 1.34.92a1.5 1.5 0 0 1 1.42-.92c.94 0 1.51.7 1.51 1.75v2.66H547v-2.54c0-.7-.3-1.19-.86-1.19-.7 0-1.18.6-1.18 1.58v2.15h-.75v-2.54c0-.7-.28-1.19-.85-1.19-.7 0-1.19.6-1.19 1.58v2.15zm11.53-1.31c-.22.76-.93 1.4-2.03 1.4-1.26 0-2.18-.96-2.18-2.25 0-1.27.85-2.25 2.2-2.25 1.36 0 2.18 1.1 2.07 2.45h-3.52c.03.79.66 1.37 1.44 1.37.53 0 1-.2 1.25-.72zm-2.04-2.44c-.62 0-1.24.34-1.38 1.2h2.7c-.14-.8-.68-1.2-1.32-1.2m3.18 3.75v-4.33h.74v.67c.3-.51.82-.75 1.38-.75.97 0 1.63.67 1.63 1.75v2.66h-.73v-2.55c0-.73-.42-1.18-1.02-1.18-.7 0-1.26.57-1.26 1.58v2.15zm7.4-.06q-.28.1-.67.1c-.76 0-1.33-.42-1.33-1.32v-2.36h-.92v-.69h.92v-1.2h.75v1.2h1.24v.69h-1.25v2.27c0 .55.26.73.72.73.18 0 .4-.03.53-.08zm3.93-1.1c0 .85-.7 1.25-1.6 1.25-.92 0-1.7-.47-1.75-1.34h.76c.1.53.55.7 1 .7.47 0 .84-.18.84-.56 0-.35-.21-.56-.72-.7l-.63-.16c-.74-.2-1.11-.66-1.11-1.27 0-.72.62-1.17 1.5-1.17.92 0 1.5.54 1.57 1.24h-.74a.8.8 0 0 0-.83-.62c-.42 0-.75.2-.75.54q-.01.46.66.62l.7.18c.7.18 1.1.63 1.1 1.28"/><path stroke="#D9D9D9" stroke-width="1.24" d="M643.16 302.28H495.94a5.57 5.57 0 0 0-5.57 5.56v32.3c0 3.06 2.5 5.56 5.57 5.56h147.22c3.07 0 5.56-2.5 5.56-5.57v-32.29a5.56 5.56 0 0 0-5.56-5.56Z"/><path stroke="#C1C7C6" stroke-width="1.02" d="M508.68 313h-8.58v7.16h8.58z"/><path stroke="#C1C7C6" stroke-linejoin="round" stroke-width="1.02" d="M504.29 312.77v7.36m4.43-3.54h-8.17"/><path fill="#00A35C" d="M520.58 367.63a3.6 3.6 0 0 1-3.63 3.63 3.6 3.6 0 0 1-3.63-3.63 3.6 3.6 0 0 1 3.63-3.63c2 0 3.63 1.6 3.63 3.63m-6.1 0a2.46 2.46 0 1 0 4.92 0 2.46 2.46 0 1 0-4.92 0m7.21 3.51v-4.95h1.09v.88a1.4 1.4 0 0 1 1.3-.93q.2 0 .43.04v1.12a2 2 0 0 0-.54-.09c-.63 0-1.2.53-1.2 1.52v2.41zm3.24-2.47c0-1.42 1.03-2.58 2.38-2.58a2 2 0 0 1 1.59.77v-3.14h1.08v7.42h-1.09v-.66c-.27.4-.87.76-1.58.76-1.35 0-2.38-1.16-2.38-2.57m4.05 0c0-.9-.59-1.59-1.47-1.59s-1.47.7-1.47 1.59.59 1.58 1.47 1.58 1.47-.7 1.47-1.58m7.09.92c-.28.93-1.17 1.65-2.43 1.65a2.47 2.47 0 0 1-2.53-2.57 2.46 2.46 0 0 1 2.54-2.58c1.52 0 2.58 1.16 2.48 2.84h-3.94c.04.75.61 1.35 1.5 1.35.54 0 1.01-.22 1.24-.7zm-2.45-2.59c-.68 0-1.24.4-1.4 1.16h2.74c-.17-.8-.73-1.16-1.34-1.16m3.63 4.14v-4.95h1.08v.88a1.4 1.4 0 0 1 1.3-.93q.22 0 .44.04v1.12a2 2 0 0 0-.55-.09c-.62 0-1.19.53-1.19 1.52v2.41zm5.97 0v-7.02h2.16c2.08 0 3.68 1.52 3.68 3.5 0 2-1.6 3.52-3.68 3.52zm1.16-1.08h1c1.5 0 2.5-1.06 2.5-2.43s-1-2.44-2.5-2.44h-1zm10.43-.47c-.28.93-1.17 1.65-2.42 1.65a2.47 2.47 0 0 1-2.53-2.57 2.46 2.46 0 0 1 2.54-2.58c1.51 0 2.57 1.16 2.47 2.84h-3.94c.04.75.62 1.35 1.5 1.35.54 0 1.02-.22 1.24-.7zm-2.44-2.59c-.69 0-1.25.4-1.4 1.16h2.73c-.17-.8-.73-1.16-1.33-1.16m6.49 4.08q-.32.1-.81.1c-.95 0-1.7-.51-1.7-1.63v-2.39h-1.02v-.97h1.03v-1.37h1.09v1.37h1.4v.97h-1.4v2.2c0 .62.26.85.83.85q.32 0 .58-.1zm.6-2.41c0-1.42 1.04-2.58 2.4-2.58.7 0 1.3.37 1.57.77v-.67h1.1v4.95h-1.1v-.66c-.27.4-.87.76-1.58.76-1.35 0-2.38-1.16-2.38-2.57m4.06 0c0-.9-.59-1.59-1.47-1.59s-1.47.7-1.47 1.59.59 1.58 1.47 1.58 1.47-.7 1.47-1.58m3.74-4.29c0 .4-.31.74-.72.74a.74.74 0 0 1-.73-.74.72.72 0 0 1 1.45 0m-1.26 6.76v-4.95h1.09v4.95zm2.55 0v-7.42h1.09v7.42zm6.23-1.37c0 .96-.83 1.47-1.94 1.47-1.16 0-2.06-.62-2.12-1.6h1.13c.09.53.53.73 1.02.73.48 0 .8-.19.8-.53 0-.33-.22-.52-.73-.65l-.81-.22c-.85-.22-1.27-.77-1.27-1.5 0-.82.73-1.38 1.84-1.38 1.07 0 1.81.6 1.9 1.49h-1.1c-.1-.42-.42-.62-.8-.62-.42 0-.73.2-.73.5 0 .33.25.5.66.6l.83.22q1.34.35 1.32 1.5"/><path fill="#000" d="M500.4 385.5v-6.14h3.6v.76h-2.78V382h2.26v.76h-2.26v2H504v.76zm4.62 0v-4.32h.74v.67c.25-.46.73-.76 1.3-.76.66 0 1.12.36 1.34.93a1.5 1.5 0 0 1 1.42-.93c.94 0 1.51.7 1.51 1.76v2.66h-.74v-2.55c0-.7-.3-1.18-.86-1.18-.7 0-1.18.6-1.18 1.58v2.15h-.75v-2.55c0-.7-.28-1.18-.85-1.18-.7 0-1.19.6-1.19 1.58v2.15zm8.4-.66v.67h-.75V379h.75v2.84a1.9 1.9 0 0 1 1.52-.76c1.2 0 2.12 1.02 2.12 2.26s-.91 2.25-2.12 2.25a1.9 1.9 0 0 1-1.52-.76m2.88-1.5c0-.87-.6-1.56-1.47-1.56s-1.47.69-1.47 1.57c0 .87.6 1.56 1.47 1.56s1.47-.7 1.47-1.56m5.7.85c-.22.76-.93 1.4-2.03 1.4a2.15 2.15 0 0 1-2.18-2.24c0-1.27.85-2.26 2.2-2.26 1.36 0 2.18 1.11 2.08 2.45h-3.53c.03.8.66 1.38 1.44 1.38.54 0 1-.2 1.25-.73zm-2.04-2.44c-.62 0-1.24.35-1.38 1.2h2.7c-.14-.8-.68-1.2-1.32-1.2m2.84 1.6c0-1.24.91-2.26 2.12-2.26.65 0 1.24.34 1.53.76v-2.83h.74v6.49h-.74v-.67a1.9 1.9 0 0 1-1.53.76c-1.2 0-2.12-1.02-2.12-2.25m3.7 0c0-.88-.59-1.57-1.46-1.57-.88 0-1.48.69-1.48 1.57 0 .87.6 1.56 1.48 1.56.87 0 1.47-.7 1.47-1.56m1.76 0c0-1.24.9-2.26 2.12-2.26.65 0 1.23.34 1.52.76v-2.83h.74v6.49h-.74v-.67a1.9 1.9 0 0 1-1.52.76c-1.22 0-2.12-1.02-2.12-2.25m3.7 0c0-.88-.6-1.57-1.47-1.57s-1.48.69-1.48 1.57c0 .87.6 1.56 1.48 1.56.87 0 1.47-.7 1.47-1.56m5.95.84c-.21.76-.92 1.4-2.02 1.4a2.15 2.15 0 0 1-2.18-2.24c0-1.27.85-2.26 2.2-2.26 1.36 0 2.18 1.11 2.08 2.45h-3.53c.03.8.66 1.38 1.44 1.38.53 0 1-.2 1.25-.73zm-2.03-2.44c-.62 0-1.24.35-1.38 1.2h2.7c-.14-.8-.68-1.2-1.32-1.2m2.84 1.6c0-1.24.91-2.26 2.12-2.26.65 0 1.24.34 1.53.76v-2.83h.74v6.49h-.74v-.67a1.9 1.9 0 0 1-1.53.76c-1.21 0-2.12-1.02-2.12-2.25m3.7 0c0-.88-.6-1.57-1.46-1.57-.88 0-1.49.69-1.49 1.57 0 .87.61 1.56 1.49 1.56.87 0 1.47-.7 1.47-1.56m3.84 0c0-1.24.91-2.26 2.12-2.26.65 0 1.24.34 1.53.76v-.67h.74v4.33h-.74v-.67a1.9 1.9 0 0 1-1.53.76c-1.2 0-2.12-1.02-2.12-2.25m3.7 0c0-.88-.59-1.57-1.46-1.57-.88 0-1.49.69-1.49 1.57 0 .87.61 1.56 1.49 1.56.87 0 1.47-.7 1.47-1.56m2.1 2.16v-4.33h.74v.84c.17-.55.7-.88 1.2-.88q.18 0 .35.03v.77a1 1 0 0 0-.41-.07c-.55 0-1.14.48-1.14 1.5v2.14zm3.16 0v-4.33h.75v.84c.17-.55.7-.88 1.2-.88q.17 0 .35.03v.77a1 1 0 0 0-.41-.07c-.55 0-1.14.48-1.14 1.5v2.14zm2.7-2.16c0-1.24.9-2.26 2.11-2.26.65 0 1.24.34 1.53.76v-.67h.74v4.33h-.74v-.67a1.9 1.9 0 0 1-1.53.76c-1.2 0-2.12-1.02-2.12-2.25m3.7 0c0-.88-.6-1.57-1.48-1.57-.87 0-1.48.69-1.48 1.57 0 .87.61 1.56 1.49 1.56.87 0 1.47-.7 1.47-1.56m3.23 3.97h-.83l.95-2.04-1.9-4.1h.82l1.5 3.28 1.47-3.28h.83z"/><path stroke="#D9D9D9" stroke-width="1.24" d="M643.16 353.38H495.94a5.56 5.56 0 0 0-5.57 5.57v32.29c0 3.07 2.5 5.56 5.57 5.56h147.22a5.56 5.56 0 0 0 5.56-5.56v-32.3a5.56 5.56 0 0 0-5.56-5.56Z"/><path stroke="#C1C7C6" stroke-width="1.02" d="M508.68 364.11h-8.58v7.16h8.58z"/><path stroke="#C1C7C6" stroke-linejoin="round" stroke-width="1.02" d="M504.29 363.87v7.36m4.43-3.54h-8.17"/><path fill="#00A35C" d="M516 416.42c1.44 0 2.43 1 2.43 2.3S517.44 421 516 421h-1.08v2.43h-1.16v-7.02zm-.01 3.5c.82 0 1.3-.52 1.3-1.2 0-.69-.48-1.21-1.3-1.21h-1.07v2.41zm3.38 3.52v-4.94h1.09v.88a1.4 1.4 0 0 1 1.3-.93q.2-.01.43.04v1.11a2 2 0 0 0-.54-.09c-.63 0-1.19.53-1.19 1.52v2.41zm8.41-2.47a2.55 2.55 0 0 1-2.59 2.57 2.55 2.55 0 0 1-2.59-2.57 2.55 2.55 0 0 1 2.6-2.57 2.55 2.55 0 0 1 2.58 2.57m-4.08 0c0 .88.61 1.56 1.5 1.56.86 0 1.48-.68 1.48-1.56s-.62-1.56-1.49-1.56c-.88 0-1.5.68-1.5 1.56m4.82 0c0-1.42 1.03-2.57 2.39-2.57.71 0 1.3.36 1.58.76v-3.14h1.09v7.42h-1.09v-.66c-.28.4-.87.76-1.58.76-1.36 0-2.39-1.16-2.39-2.57m4.06 0c0-.9-.6-1.58-1.48-1.58-.87 0-1.47.69-1.47 1.58s.6 1.58 1.48 1.58 1.47-.69 1.47-1.58m2.4.48v-2.95h1.1v2.78c0 .79.35 1.27.98 1.27.7 0 1.2-.56 1.2-1.62v-2.43h1.1v4.94h-1.1v-.67c-.28.5-.8.77-1.44.77-1.13 0-1.84-.82-1.84-2.09m10.59.18a2.5 2.5 0 0 1-2.51 1.91c-1.5 0-2.6-1.15-2.6-2.57a2.53 2.53 0 0 1 2.6-2.57c1.3 0 2.24.8 2.51 1.9h-1.15a1.4 1.4 0 0 0-1.36-.91c-.88 0-1.49.66-1.49 1.58s.6 1.58 1.49 1.58a1.4 1.4 0 0 0 1.36-.92zm3.93 1.75q-.32.1-.81.11c-.95 0-1.7-.52-1.7-1.64v-2.38h-1.02v-.97h1.02v-1.38h1.1v1.38h1.4v.97h-1.4v2.2c0 .62.26.84.82.84q.33 0 .59-.1zm4.71-1.3c0 .96-.83 1.46-1.94 1.46-1.16 0-2.06-.61-2.12-1.6h1.13c.1.53.54.73 1.02.73s.8-.19.8-.52c0-.34-.22-.53-.73-.66l-.81-.21c-.85-.22-1.27-.78-1.27-1.5 0-.83.74-1.38 1.84-1.38 1.07 0 1.81.6 1.9 1.48h-1.1c-.1-.41-.42-.61-.8-.61-.42 0-.73.19-.73.5 0 .32.25.49.66.6l.84.21q1.31.36 1.31 1.5"/><path fill="#000" d="M500.4 437.81v-6.14h3.6v.76h-2.78v1.86h2.26v.76h-2.26v2H504v.76zm4.62 0v-4.33h.74v.67c.25-.46.73-.75 1.3-.75.66 0 1.12.35 1.34.92a1.5 1.5 0 0 1 1.42-.92c.94 0 1.51.7 1.51 1.75v2.66h-.74v-2.54c0-.7-.3-1.19-.86-1.19-.7 0-1.18.6-1.18 1.59v2.14h-.75v-2.54c0-.7-.28-1.19-.85-1.19-.7 0-1.19.6-1.19 1.59v2.14zm8.4-.66v.66h-.75v-6.49h.75v2.83a1.9 1.9 0 0 1 1.52-.75c1.2 0 2.12 1.01 2.12 2.25s-.91 2.25-2.12 2.25a1.9 1.9 0 0 1-1.52-.75m2.88-1.5c0-.88-.6-1.57-1.47-1.57s-1.47.7-1.47 1.57.6 1.56 1.47 1.56 1.47-.69 1.47-1.56m5.7.85c-.22.76-.93 1.4-2.03 1.4-1.26 0-2.18-.96-2.18-2.25 0-1.26.85-2.25 2.2-2.25 1.36 0 2.18 1.1 2.08 2.45h-3.53c.03.78.66 1.37 1.44 1.37.54 0 1-.2 1.25-.72zm-2.04-2.44c-.62 0-1.24.34-1.38 1.2h2.7c-.14-.8-.68-1.2-1.32-1.2m2.84 1.59c0-1.24.91-2.25 2.12-2.25.65 0 1.24.34 1.53.75v-2.83h.74v6.5h-.74v-.67a1.9 1.9 0 0 1-1.53.75c-1.2 0-2.12-1.01-2.12-2.25m3.7 0c0-.88-.59-1.57-1.46-1.57-.88 0-1.48.7-1.48 1.57s.6 1.56 1.48 1.56c.87 0 1.47-.69 1.47-1.56m1.76 0c0-1.24.9-2.25 2.12-2.25.65 0 1.23.34 1.52.75v-2.83h.74v6.5h-.74v-.67a1.9 1.9 0 0 1-1.52.75c-1.22 0-2.12-1.01-2.12-2.25m3.7 0c0-.88-.6-1.57-1.47-1.57s-1.48.7-1.48 1.57.6 1.56 1.48 1.56c.87 0 1.47-.69 1.47-1.56m5.95.85c-.21.76-.92 1.4-2.02 1.4-1.26 0-2.18-.96-2.18-2.25 0-1.26.85-2.25 2.2-2.25 1.36 0 2.18 1.1 2.08 2.45h-3.53c.03.78.66 1.37 1.44 1.37.53 0 1-.2 1.25-.72zm-2.03-2.44c-.62 0-1.24.34-1.38 1.2h2.7c-.14-.8-.68-1.2-1.32-1.2m2.84 1.59c0-1.24.91-2.25 2.12-2.25.65 0 1.24.34 1.53.75v-2.83h.74v6.5h-.74v-.67a1.9 1.9 0 0 1-1.53.75c-1.21 0-2.12-1.01-2.12-2.25m3.7 0c0-.88-.6-1.57-1.46-1.57-.88 0-1.49.7-1.49 1.57s.61 1.56 1.49 1.56c.87 0 1.47-.69 1.47-1.56m3.84 0c0-1.24.91-2.25 2.12-2.25.65 0 1.24.34 1.53.75v-2.83h.74v6.5h-.74v-.67a1.9 1.9 0 0 1-1.53.75c-1.2 0-2.12-1.01-2.12-2.25m3.7 0c0-.88-.59-1.57-1.46-1.57-.88 0-1.49.7-1.49 1.57s.61 1.56 1.49 1.56c.87 0 1.47-.69 1.47-1.56m6.27 0c0 1.25-.96 2.25-2.26 2.25s-2.26-1-2.26-2.25.96-2.25 2.26-2.25 2.26 1 2.26 2.25m-3.76 0c0 .86.6 1.56 1.5 1.56s1.5-.7 1.5-1.56-.6-1.56-1.5-1.56-1.5.7-1.5 1.56m8.94.64a2.2 2.2 0 0 1-2.19 1.6 2.2 2.2 0 0 1-2.25-2.24c0-1.24.94-2.25 2.25-2.25 1.1 0 1.94.67 2.19 1.6h-.8a1.4 1.4 0 0 0-1.39-.92c-.9 0-1.5.7-1.5 1.57s.6 1.56 1.5 1.56c.68 0 1.2-.37 1.39-.92zm.92-.15v-2.66h.75v2.55c0 .73.38 1.19.97 1.19.68 0 1.2-.6 1.2-1.59v-2.15h.75v4.33h-.74v-.66c-.29.5-.8.75-1.34.75-.95 0-1.59-.69-1.59-1.76m5.07 1.67v-4.33h.75v.67c.25-.46.73-.75 1.3-.75.66 0 1.12.35 1.34.92a1.5 1.5 0 0 1 1.42-.92c.94 0 1.51.7 1.51 1.75v2.66h-.74v-2.54c0-.7-.3-1.19-.86-1.19-.7 0-1.18.6-1.18 1.59v2.14h-.75v-2.54c0-.7-.28-1.19-.85-1.19-.7 0-1.2.6-1.2 1.59v2.14zm11.53-1.31c-.21.76-.92 1.4-2.02 1.4-1.27 0-2.18-.96-2.18-2.25 0-1.26.85-2.25 2.2-2.25s2.18 1.1 2.07 2.45h-3.52c.02.78.66 1.37 1.44 1.37.53 0 1-.2 1.25-.72zm-2.03-2.44c-.62 0-1.24.34-1.39 1.2h2.7c-.13-.8-.67-1.2-1.31-1.2m3.18 3.75v-4.33h.74v.67c.3-.51.81-.75 1.38-.75.97 0 1.63.67 1.63 1.75v2.66h-.73v-2.55c0-.73-.42-1.18-1.02-1.18-.7 0-1.26.57-1.26 1.59v2.14zm7.39-.06q-.27.1-.67.1c-.75 0-1.32-.42-1.32-1.32v-2.36h-.92v-.69h.92v-1.2h.74v1.2h1.25v.69h-1.25v2.27c0 .55.25.73.72.73.18 0 .4-.03.53-.08zm3.94-1.1c0 .85-.7 1.25-1.6 1.25-.92 0-1.7-.47-1.75-1.34h.76c.1.53.55.7 1 .7.47 0 .83-.18.83-.56 0-.35-.2-.56-.71-.7l-.63-.16c-.74-.2-1.11-.66-1.11-1.27 0-.72.62-1.17 1.5-1.17.92 0 1.5.54 1.57 1.24h-.75a.8.8 0 0 0-.83-.62c-.41 0-.74.2-.74.54q-.01.46.66.62l.69.18q1.09.3 1.1 1.28"/><path stroke="#D9D9D9" stroke-width="1.24" d="M643.16 405.69H495.94a5.56 5.56 0 0 0-5.57 5.56v32.3c0 3.06 2.5 5.56 5.57 5.56h147.22c3.07 0 5.56-2.5 5.56-5.57v-32.29a5.56 5.56 0 0 0-5.56-5.56Z"/><path stroke="#C1C7C6" stroke-width="1.02" d="M508.68 416.42h-8.58v7.15h8.58z"/><path stroke="#C1C7C6" stroke-linejoin="round" stroke-width="1.02" d="M504.29 416.18v7.36m4.43-3.54h-8.17"/><path fill="#00A35C" d="M513.29 475.22h1.16c.09.71.75 1.06 1.4 1.06s1.17-.33 1.17-.89q.02-.7-.97-1.03l-.86-.29c-1.11-.35-1.72-1-1.72-2.02-.01-1.22.92-1.95 2.23-1.95 1.47 0 2.27 1.03 2.34 2h-1.16c-.17-.66-.7-.92-1.2-.92-.58 0-1.05.3-1.05.8 0 .52.32.8.94 1l.88.28c1.1.36 1.74 1.02 1.74 2.1 0 1.18-.95 2-2.34 2-1.57 0-2.51-1.03-2.56-2.14m6.04 2.02v-7.42h1.08v3.15c.3-.5.87-.78 1.5-.78 1.16 0 1.9.82 1.9 2.07v2.98h-1.1v-2.8c0-.78-.39-1.25-1.02-1.25-.72 0-1.28.56-1.28 1.62v2.43zm7.14-6.76c0 .41-.32.74-.73.74a.74.74 0 0 1-.73-.74c0-.4.34-.72.73-.72.41 0 .73.33.73.72m-1.27 6.76v-4.95h1.09v4.95zm2.55 2.07v-7.02h1.09v.67a2 2 0 0 1 1.6-.76c1.35 0 2.38 1.15 2.38 2.57 0 1.41-1.03 2.57-2.39 2.57a2 2 0 0 1-1.6-.76v2.73zm3.96-4.54c0-.9-.6-1.58-1.48-1.58s-1.48.69-1.48 1.58.6 1.58 1.48 1.58 1.48-.7 1.48-1.58m2.21 4.54v-7.02h1.1v.67a2 2 0 0 1 1.59-.76c1.35 0 2.38 1.15 2.38 2.57 0 1.41-1.03 2.57-2.38 2.57a2 2 0 0 1-1.6-.76v2.73zm3.96-4.54c0-.9-.6-1.58-1.47-1.58-.88 0-1.49.69-1.49 1.58s.6 1.58 1.49 1.58c.87 0 1.47-.7 1.47-1.58m6.83.92c-.28.93-1.17 1.65-2.43 1.65a2.47 2.47 0 0 1-2.53-2.57 2.46 2.46 0 0 1 2.54-2.57c1.52 0 2.58 1.15 2.48 2.84h-3.94c.04.75.61 1.34 1.5 1.34.54 0 1.01-.22 1.24-.7zm-2.45-2.58c-.68 0-1.24.4-1.39 1.15h2.73c-.17-.8-.73-1.15-1.34-1.15m3.63 4.13v-4.95h1.08v.88a1.4 1.4 0 0 1 1.31-.93q.2 0 .43.05v1.11a2 2 0 0 0-.55-.09c-.62 0-1.19.53-1.19 1.52v2.41zm7.35-1.36c0 .95-.83 1.46-1.94 1.46-1.16 0-2.06-.61-2.12-1.6h1.13c.09.53.53.73 1.02.73.47 0 .8-.19.8-.53q.02-.47-.73-.65l-.81-.22c-.86-.21-1.27-.77-1.27-1.49 0-.83.73-1.38 1.84-1.38 1.07 0 1.81.59 1.89 1.48h-1.09c-.1-.42-.43-.61-.81-.61-.42 0-.72.18-.72.5s.25.49.66.6l.83.21q1.34.35 1.32 1.5"/><path fill="#000" d="M500.4 491.6v-6.14h3.6v.77h-2.78v1.86h2.26v.76h-2.26v2H504v.76zm4.62 0v-4.32h.74v.67c.25-.46.73-.76 1.3-.76.66 0 1.12.36 1.34.93a1.5 1.5 0 0 1 1.42-.93c.94 0 1.51.7 1.51 1.76v2.66h-.74v-2.55c0-.7-.3-1.18-.86-1.18-.7 0-1.18.6-1.18 1.58v2.15h-.75v-2.55c0-.7-.28-1.18-.85-1.18-.7 0-1.19.6-1.19 1.58v2.15zm8.4-.66v.67h-.75v-6.5h.75v2.84a1.9 1.9 0 0 1 1.52-.76c1.2 0 2.12 1.02 2.12 2.25 0 1.24-.91 2.26-2.12 2.26a1.9 1.9 0 0 1-1.52-.76m2.88-1.5c0-.87-.6-1.56-1.47-1.56s-1.47.7-1.47 1.56c0 .88.6 1.57 1.47 1.57s1.47-.7 1.47-1.56m5.7.85c-.22.76-.93 1.4-2.03 1.4-1.26 0-2.18-.95-2.18-2.25 0-1.26.85-2.25 2.2-2.25 1.36 0 2.18 1.11 2.08 2.45h-3.53c.03.8.66 1.38 1.44 1.38.54 0 1-.2 1.25-.73zm-2.04-2.44c-.62 0-1.24.35-1.38 1.2h2.7c-.14-.8-.68-1.2-1.32-1.2m2.84 1.6c0-1.24.91-2.26 2.12-2.26.65 0 1.24.34 1.53.76v-2.83h.74v6.49h-.74v-.67a1.9 1.9 0 0 1-1.53.76c-1.2 0-2.12-1.02-2.12-2.25m3.7 0c0-.88-.59-1.57-1.46-1.57-.88 0-1.48.7-1.48 1.56 0 .88.6 1.57 1.48 1.57.87 0 1.47-.7 1.47-1.56m1.76 0c0-1.24.9-2.26 2.12-2.26.65 0 1.23.34 1.52.76v-2.83h.74v6.49h-.74v-.67a1.9 1.9 0 0 1-1.52.76c-1.22 0-2.12-1.02-2.12-2.25m3.7 0c0-.88-.6-1.57-1.47-1.57s-1.48.7-1.48 1.56c0 .88.6 1.57 1.48 1.57.87 0 1.47-.7 1.47-1.56m5.95.84c-.21.76-.92 1.4-2.02 1.4-1.26 0-2.18-.95-2.18-2.25 0-1.26.85-2.25 2.2-2.25 1.36 0 2.18 1.11 2.08 2.45h-3.53c.03.8.66 1.38 1.44 1.38.53 0 1-.2 1.25-.73zm-2.03-2.44c-.62 0-1.24.35-1.38 1.2h2.7c-.14-.8-.68-1.2-1.32-1.2m2.84 1.6c0-1.24.91-2.26 2.12-2.26.65 0 1.24.34 1.53.76v-2.83h.74v6.49h-.74v-.67a1.9 1.9 0 0 1-1.53.76c-1.21 0-2.12-1.02-2.12-2.25m3.7 0c0-.88-.6-1.57-1.46-1.57-.88 0-1.49.7-1.49 1.56 0 .88.61 1.57 1.49 1.57.87 0 1.47-.7 1.47-1.56m3.84 0c0-1.24.91-2.26 2.12-2.26.65 0 1.24.34 1.53.76v-2.83h.74v6.49h-.74v-.67a1.9 1.9 0 0 1-1.53.76c-1.2 0-2.12-1.02-2.12-2.25m3.7 0c0-.88-.59-1.57-1.46-1.57-.88 0-1.49.7-1.49 1.56 0 .88.61 1.57 1.49 1.57.87 0 1.47-.7 1.47-1.56m6.27 0c0 1.24-.96 2.25-2.26 2.25s-2.26-1-2.26-2.25.96-2.26 2.26-2.26 2.26 1 2.26 2.25m-3.76 0c0 .86.6 1.55 1.5 1.55s1.5-.69 1.5-1.56c0-.86-.6-1.55-1.5-1.55s-1.5.69-1.5 1.56m8.94.64a2.2 2.2 0 0 1-2.19 1.6 2.2 2.2 0 0 1-2.25-2.25c0-1.23.94-2.25 2.25-2.25 1.1 0 1.94.68 2.19 1.61h-.8a1.4 1.4 0 0 0-1.39-.92c-.9 0-1.5.7-1.5 1.56 0 .88.6 1.57 1.5 1.57.68 0 1.2-.38 1.39-.92zm.92-.15v-2.66h.75v2.55c0 .72.38 1.18.97 1.18.68 0 1.2-.59 1.2-1.58v-2.15h.75v4.33h-.74v-.67c-.29.5-.8.76-1.34.76-.95 0-1.59-.69-1.59-1.76m5.07 1.67v-4.33h.75v.67c.25-.46.73-.76 1.3-.76.66 0 1.12.36 1.34.93a1.5 1.5 0 0 1 1.42-.93c.94 0 1.51.7 1.51 1.76v2.66h-.74v-2.55c0-.7-.3-1.18-.86-1.18-.7 0-1.18.6-1.18 1.58v2.15h-.75v-2.55c0-.7-.28-1.18-.85-1.18-.7 0-1.2.6-1.2 1.58v2.15zm11.53-1.32c-.21.76-.92 1.4-2.02 1.4-1.27 0-2.18-.95-2.18-2.25 0-1.26.85-2.25 2.2-2.25s2.18 1.11 2.07 2.45h-3.52c.02.8.66 1.38 1.44 1.38.53 0 1-.2 1.25-.73zm-2.03-2.44c-.62 0-1.24.35-1.39 1.2h2.7c-.13-.8-.67-1.2-1.31-1.2m3.18 3.76v-4.33h.74v.67c.3-.51.81-.76 1.38-.76.97 0 1.63.68 1.63 1.75v2.67h-.73v-2.56c0-.72-.42-1.17-1.02-1.17-.7 0-1.26.57-1.26 1.58v2.15zm7.39-.06q-.27.1-.67.1c-.75 0-1.32-.42-1.32-1.32v-2.37h-.92v-.68h.92v-1.2h.74v1.2h1.25v.69h-1.25v2.26c0 .56.25.74.72.74.18 0 .4-.04.53-.09zm3.94-1.11c0 .86-.7 1.26-1.6 1.26-.92 0-1.7-.47-1.75-1.35h.76c.1.53.55.71 1 .71.47 0 .83-.19.83-.57 0-.34-.2-.55-.71-.69l-.63-.17c-.74-.19-1.11-.65-1.11-1.27 0-.72.62-1.17 1.5-1.17.92 0 1.5.55 1.57 1.24h-.75a.8.8 0 0 0-.83-.61c-.41 0-.74.2-.74.53 0 .32.2.5.66.63l.69.18q1.09.29 1.1 1.28"/><path stroke="#D9D9D9" stroke-width="1.24" d="M643.16 459.48H495.94a5.57 5.57 0 0 0-5.57 5.57v32.29c0 3.07 2.5 5.56 5.57 5.56h147.22a5.56 5.56 0 0 0 5.56-5.56v-32.3a5.57 5.57 0 0 0-5.56-5.56Z"/><path stroke="#C1C7C6" stroke-width="1.02" d="M508.68 470.22h-8.58v7.15h8.58z"/><path stroke="#C1C7C6" stroke-linejoin="round" stroke-width="1.02" d="M504.29 469.97v7.36m4.43-3.54h-8.17"/><defs><filter id="a" width="137.16" height="287.08" x="0" y="117.56" color-interpolation-filters="sRGB" filterUnits="userSpaceOnUse"><feFlood flood-opacity="0" result="BackgroundImageFix"/><feColorMatrix in="SourceAlpha" result="hardAlpha" values="0 0 0 0 0 0 0 0 0 0 0 0 0 0 0 0 0 0 127 0"/><feOffset dy="31.52"/><feGaussianBlur stdDeviation="10.94"/><feComposite in2="hardAlpha" operator="out"/><feColorMatrix values="0 0 0 0 0 0 0 0 0 0 0 0 0 0 0 0 0 0 0.2 0"/><feBlend in2="BackgroundImageFix" result="effect1_dropShadow_1919_4129"/><feBlend in="SourceGraphic" in2="effect1_dropShadow_1919_4129" result="shape"/></filter><filter id="b" width="205.89" height="287.08" x="465.34" y="276.38" color-interpolation-filters="sRGB" filterUnits="userSpaceOnUse"><feFlood flood-opacity="0" result="BackgroundImageFix"/><feColorMatrix in="SourceAlpha" result="hardAlpha" values="0 0 0 0 0 0 0 0 0 0 0 0 0 0 0 0 0 0 127 0"/><feOffset dy="31.52"/><feGaussianBlur stdDeviation="10.94"/><feComposite in2="hardAlpha" operator="out"/><feColorMatrix values="0 0 0 0 0 0 0 0 0 0 0 0 0 0 0 0 0 0 0.2 0"/><feBlend in2="BackgroundImageFix" result="effect1_dropShadow_1919_4129"/><feBlend in="SourceGraphic" in2="effect1_dropShadow_1919_4129" result="shape"/></filter></defs></svg>